<svg id="Capa_1" data-name="Capa 1" xmlns="http://www.w3.org/2000/svg" viewBox="0 0 94.49 137.21"><defs><style>.cls-1{fill:#ffaeb5;}.cls-1,.cls-2{fill-rule:evenodd;}.cls-2{fill:#ffced2;}</style></defs><path class="cls-1" d="M90.12,204.92c-.83.68-1.72,1.36-2.58,2.12A1.71,1.71,0,0,0,87,208c-.59,4.48-1.5,5.63-4.78,6-1.08,4.36-2.25,5.23-6,4.46-1.68,3.63-3.5,4.27-6.32,2.23-2.9,3.17-3.79,3.17-6.92,0-2.74,2.14-4.22,1.63-6.45-2.2-2.94,1-4.34.1-5.64-3.7a1.43,1.43,0,0,0-.9-.84c-2.54-.44-3.8-2.18-4.06-5.6a2.15,2.15,0,0,0-.43-1.23c-.88-.8-1.82-1.47-2.6-2.09V86L90,85.86ZM66.6,194.14l-.28,0c-.9,4.6-1.85,9.19-2.7,13.81A4.26,4.26,0,0,0,65,212.12a2.12,2.12,0,0,0,3.06,0,4.27,4.27,0,0,0,1.3-4.16C68.46,203.32,67.51,198.74,66.6,194.14Zm2.69-1.62-.23.37c1.73,3.34,3.38,6.78,5.24,10,1,1.69,3,1.34,3.84-.31s.59-4-.84-5C74.68,195.77,72,194.19,69.29,192.52Zm-5.44.36-.22-.39c-2.66,1.7-5.31,3.43-8,5.08a3.14,3.14,0,0,0-1.34,3.27c.2,1.09.91,2.5,1.62,2.79a2.44,2.44,0,0,0,2.67-.82C60.49,199.66,62.12,196.21,63.85,192.88ZM84.79,207l-2.6,4.13a1.64,1.64,0,0,0,2.37-.62A3.3,3.3,0,0,0,84.79,207Zm-32.08,5.35c-.29,1.81,0,3,1,3.72s1.8.52,2.6-.71Zm-1.54-1.75-2.93-3.78c-.68,1.54-.62,2.78.25,3.82S50.14,211.65,51.17,210.57Zm17.33,7.62h-4c.39,1.61,1.07,2.33,2.16,2.25S68.18,219.51,68.5,218.19Zm8.06-2.88c.84,1.2,1.75,1.41,2.64.73s1.24-2,.91-3.6Zm-5.86,2.45c.72,1.41,1.52,1.92,2.53,1.38a2.64,2.64,0,0,0,1.29-2.75Zm-12.35-1.38c.11,1.75.72,2.74,1.74,2.82.69.05,1.41-.54,2.11-.85,0-.21-.09-.43-.13-.64ZM46.5,205c.11-.23.22-.46.32-.7L44.9,200l-.49.1a9.39,9.39,0,0,0,.16,3C45,204,45.84,204.39,46.5,205Zm43.62-13.19c-.43,1.94-.81,3.61-1.17,5.28h1.17m-1.69,3L88,200c-.65,1.47-1.29,3-1.94,4.42l.36.58c.66-.62,1.56-1,1.92-1.91S88.43,201.1,88.43,200.07Zm-45.55-2.93h1.06c-.34-1.6-.65-3.31-1.07-5.28" transform="translate(-42.87 -85.86)"/><path class="cls-2" d="M90.12,204.92c-.83.68-1.72,1.36-2.58,2.12A1.71,1.71,0,0,0,87,208c-.59,4.48-1.5,5.63-4.78,6-1.08,4.36-2.25,5.23-6,4.46-1.68,3.63-3.5,4.27-6.32,2.23-2.9,3.17-3.79,3.17-6.92,0-2.74,2.14-4.22,1.63-6.45-2.2-2.94,1-4.34.1-5.64-3.7a1.43,1.43,0,0,0-.9-.84c-2.54-.44-3.8-2.18-4.06-5.6a2.15,2.15,0,0,0-.43-1.23c-.88-.8-1.82-1.47-2.6-2.09V86L90,85.86ZM66.6,194.14l-.28,0c-.9,4.6-1.85,9.19-2.7,13.81A4.26,4.26,0,0,0,65,212.12a2.12,2.12,0,0,0,3.06,0,4.27,4.27,0,0,0,1.3-4.16C68.46,203.32,67.51,198.74,66.6,194.14Zm2.69-1.62-.23.37c1.73,3.34,3.38,6.78,5.24,10,1,1.69,3,1.34,3.84-.31s.59-4-.84-5C74.68,195.77,72,194.19,69.29,192.52Zm-5.44.36-.22-.39c-2.66,1.7-5.31,3.43-8,5.08a3.14,3.14,0,0,0-1.34,3.27c.2,1.09.91,2.5,1.62,2.79a2.44,2.44,0,0,0,2.67-.82C60.49,199.66,62.12,196.21,63.85,192.88ZM84.79,207l-2.6,4.13a1.64,1.64,0,0,0,2.37-.62A3.3,3.3,0,0,0,84.79,207Zm-32.08,5.35c-.29,1.81,0,3,1,3.72s1.8.52,2.6-.71Zm-1.54-1.75-2.93-3.78c-.68,1.54-.62,2.78.25,3.82S50.14,211.65,51.17,210.57Zm17.33,7.62h-4c.39,1.61,1.07,2.33,2.16,2.25S68.18,219.51,68.5,218.19Zm8.06-2.88c.84,1.2,1.75,1.41,2.64.73s1.24-2,.91-3.6Zm-5.86,2.45c.72,1.41,1.52,1.92,2.53,1.38a2.64,2.64,0,0,0,1.29-2.75Zm-12.35-1.38c.11,1.75.72,2.74,1.74,2.82.69.05,1.41-.54,2.11-.85,0-.21-.09-.43-.13-.64ZM46.5,205c.11-.23.22-.46.32-.7L44.9,200l-.49.1a9.39,9.39,0,0,0,.16,3C45,204,45.84,204.39,46.5,205Zm43.62-13.19c-.43,1.94-.81,3.61-1.17,5.28h1.17m-1.69,3L88,200c-.65,1.47-1.29,3-1.94,4.42l.36.58c.66-.62,1.56-1,1.92-1.91S88.43,201.1,88.43,200.07Zm-45.55-2.93h1.06c-.34-1.6-.65-3.31-1.07-5.28" transform="translate(-42.87 -85.86)"/><path class="cls-1" d="M137.37,204.84c-.84.68-1.72,1.37-2.58,2.13a1.65,1.65,0,0,0-.52.94c-.6,4.47-1.5,5.63-4.78,6-1.09,4.37-2.26,5.23-6.05,4.47-1.68,3.62-3.49,4.26-6.31,2.23-2.9,3.17-3.79,3.16-6.92,0-2.74,2.13-4.22,1.63-6.46-2.2-2.93,1-4.33.1-5.64-3.7a1.39,1.39,0,0,0-.89-.84c-2.54-.45-3.8-2.18-4.06-5.6a2.13,2.13,0,0,0-.44-1.23c-.87-.8-1.81-1.47-2.6-2.09V86.11l47.12-.17Zm-23.52-10.77-.28,0c-.91,4.6-1.85,9.19-2.7,13.81a4.26,4.26,0,0,0,1.33,4.15,2.12,2.12,0,0,0,3.06,0,4.32,4.32,0,0,0,1.3-4.16C115.7,203.25,114.76,198.66,113.85,194.07Zm2.69-1.62c-.08.12-.16.24-.23.37,1.73,3.34,3.38,6.77,5.24,10,1,1.68,3,1.34,3.84-.32s.59-4-.84-5C121.92,195.69,119.21,194.12,116.54,192.45Zm-5.44.35c-.08-.12-.15-.25-.23-.38-2.65,1.7-5.3,3.43-8,5.08a3.1,3.1,0,0,0-1.34,3.26c.19,1.09.91,2.51,1.61,2.8a2.46,2.46,0,0,0,2.67-.82C107.74,199.58,109.37,196.14,111.1,192.8ZM132,206.9,129.43,211a1.65,1.65,0,0,0,2.37-.62A3.3,3.3,0,0,0,132,206.9ZM100,212.25c-.28,1.8,0,3,1,3.72s1.8.52,2.59-.72Zm-1.54-1.75-2.92-3.78a3.39,3.39,0,0,0,.24,3.82C96.52,211.49,97.38,211.57,98.41,210.5Zm17.33,7.61h-4c.39,1.62,1.08,2.33,2.17,2.26S115.43,219.44,115.74,218.11Zm8.06-2.87c.85,1.2,1.76,1.41,2.65.73s1.24-2,.91-3.6ZM118,217.69c.72,1.4,1.52,1.92,2.52,1.38a2.64,2.64,0,0,0,1.3-2.75Zm-12.36-1.38c.11,1.75.73,2.74,1.74,2.82.69.05,1.41-.55,2.12-.85,0-.22-.09-.43-.14-.64ZM93.75,204.93c.11-.24.21-.47.32-.7l-1.92-4.3-.49.09a9.44,9.44,0,0,0,.16,3C92.2,203.89,93.09,204.32,93.75,204.93Zm43.61-13.2c-.42,2-.8,3.61-1.17,5.29h1.17m-1.68,3-.41-.06q-1,2.2-1.94,4.42l.36.57c.66-.61,1.55-1.05,1.92-1.9A9.42,9.42,0,0,0,135.68,200Zm-45.56-2.93h1.06c-.33-1.6-.64-3.3-1.06-5.27" transform="translate(-42.87 -85.86)"/><path class="cls-1" d="M137.37,204.84c-.84.68-1.72,1.37-2.58,2.13a1.65,1.65,0,0,0-.52.94c-.6,4.47-1.5,5.63-4.78,6-1.09,4.37-2.26,5.23-6.05,4.47-1.68,3.62-3.49,4.26-6.31,2.23-2.9,3.17-3.79,3.16-6.92,0-2.74,2.13-4.22,1.63-6.46-2.2-2.93,1-4.33.1-5.64-3.7a1.39,1.39,0,0,0-.89-.84c-2.54-.45-3.8-2.18-4.06-5.6a2.13,2.13,0,0,0-.44-1.23c-.87-.8-1.81-1.47-2.6-2.09V86.11l47.12-.17Zm-23.52-10.77-.28,0c-.91,4.6-1.85,9.19-2.7,13.81a4.26,4.26,0,0,0,1.33,4.15,2.12,2.12,0,0,0,3.06,0,4.32,4.32,0,0,0,1.3-4.16C115.7,203.25,114.76,198.66,113.85,194.07Zm2.69-1.62c-.08.12-.16.24-.23.37,1.73,3.34,3.38,6.77,5.24,10,1,1.68,3,1.34,3.84-.32s.59-4-.84-5C121.92,195.69,119.21,194.12,116.54,192.45Zm-5.44.35c-.08-.12-.15-.25-.23-.38-2.65,1.7-5.3,3.43-8,5.08a3.1,3.1,0,0,0-1.34,3.26c.19,1.09.91,2.51,1.61,2.8a2.46,2.46,0,0,0,2.67-.82C107.74,199.58,109.37,196.14,111.1,192.8ZM132,206.9,129.43,211a1.65,1.65,0,0,0,2.37-.62A3.3,3.3,0,0,0,132,206.9ZM100,212.25c-.28,1.8,0,3,1,3.72s1.8.52,2.59-.72Zm-1.54-1.75-2.92-3.78a3.39,3.39,0,0,0,.24,3.82C96.52,211.49,97.38,211.57,98.41,210.5Zm17.33,7.61h-4c.39,1.62,1.08,2.33,2.17,2.26S115.43,219.44,115.74,218.11Zm8.06-2.87c.85,1.2,1.76,1.41,2.65.73s1.24-2,.91-3.6ZM118,217.69c.72,1.4,1.52,1.92,2.52,1.38a2.64,2.64,0,0,0,1.3-2.75Zm-12.36-1.38c.11,1.75.73,2.74,1.74,2.82.69.05,1.41-.55,2.12-.85,0-.22-.09-.43-.14-.64ZM93.75,204.93c.11-.24.21-.47.32-.7l-1.92-4.3-.49.09a9.44,9.44,0,0,0,.16,3C92.2,203.89,93.09,204.32,93.75,204.93Zm43.61-13.2c-.42,2-.8,3.61-1.17,5.29h1.17m-1.68,3-.41-.06q-1,2.2-1.94,4.42l.36.57c.66-.61,1.55-1.05,1.92-1.9A9.42,9.42,0,0,0,135.68,200Zm-45.56-2.93h1.06c-.33-1.6-.64-3.3-1.06-5.27" transform="translate(-42.87 -85.86)"/></svg>