<svg id="Capa_1" data-name="Capa 1" xmlns="http://www.w3.org/2000/svg" viewBox="0 0 159.46 167.5"><defs><style>.cls-1,.cls-3{fill:#fff;}.cls-2{fill:#00acd8;}.cls-3,.cls-4,.cls-6,.cls-7,.cls-8{fill-rule:evenodd;}.cls-4{fill:#eaf6fa;}.cls-5{fill:#c1e5f2;}.cls-6{stroke:#00acd8;stroke-width:11px;}.cls-6,.cls-7{stroke-miterlimit:10;}.cls-7{stroke:#fff;stroke-width:9px;}.cls-8{fill:#fb5373;}</style></defs><path class="cls-1" d="M284.37,376.64a8.49,8.49,0,0,1,0-16.94h27.7c4.36,0,7.9,3.8,7.9,8.47s-3.54,8.47-7.9,8.47Z" transform="translate(-217.77 -337.25)"/><path class="cls-2" d="M312.07,362.2a6,6,0,0,1,0,11.94h-27.7a6,6,0,0,1,0-11.94h27.7m0-5h-27.7c-5.74,0-10.41,4.92-10.41,11s4.67,11,10.41,11h27.7c5.74,0,10.4-4.92,10.4-11s-4.66-11-10.4-11Z" transform="translate(-217.77 -337.25)"/><path class="cls-1" d="M297.5,465.85a40.5,40.5,0,0,1-15.35-78V371h31.53l0,17.21a40.5,40.5,0,0,1-16.21,77.62Z" transform="translate(-217.77 -337.25)"/><path class="cls-2" d="M311.19,373.52l0,16.39a38,38,0,1,1-26.56-.32V373.52h26.54m5-5H279.65v17.71a43,43,0,1,0,36.56.4l0-13.12v-5Z" transform="translate(-217.77 -337.25)"/><path class="cls-3" d="M290.62,364a6.6,6.6,0,1,1,6.6-6.6A6.61,6.61,0,0,1,290.62,364Z" transform="translate(-217.77 -337.25)"/><path class="cls-2" d="M290.62,353.32a4.1,4.1,0,1,1-4.1,4.09,4.1,4.1,0,0,1,4.1-4.09m0-5a9.1,9.1,0,1,0,9.1,9.09,9.11,9.11,0,0,0-9.1-9.09Z" transform="translate(-217.77 -337.25)"/><path class="cls-3" d="M300.64,360.46a7.5,7.5,0,1,1,7.5-7.5A7.5,7.5,0,0,1,300.64,360.46Z" transform="translate(-217.77 -337.25)"/><path class="cls-2" d="M300.64,348a5,5,0,1,1-5,5,5,5,0,0,1,5-5m0-5a10,10,0,1,0,10,10,10,10,0,0,0-10-10Z" transform="translate(-217.77 -337.25)"/><path class="cls-3" d="M299.78,348.87a4.56,4.56,0,1,1,4.56-4.56A4.57,4.57,0,0,1,299.78,348.87Z" transform="translate(-217.77 -337.25)"/><path class="cls-2" d="M299.78,342.25a2.06,2.06,0,1,1-2.07,2.06,2.06,2.06,0,0,1,2.07-2.06m0-5a7.06,7.06,0,1,0,7.06,7.06,7.07,7.07,0,0,0-7.06-7.06Z" transform="translate(-217.77 -337.25)"/><path class="cls-1" d="M284.37,376.14c-4.08,0-7.41-3.58-7.41-8a7.71,7.71,0,0,1,7.41-8h27.7c4.08,0,7.4,3.57,7.4,8s-3.32,8-7.4,8Z" transform="translate(-217.77 -337.25)"/><path class="cls-1" d="M312.07,362.2a6,6,0,0,1,0,11.94h-27.7a6,6,0,0,1,0-11.94h27.7m0-4h-27.7c-5.19,0-9.41,4.47-9.41,10s4.22,10,9.41,10h27.7c5.19,0,9.4-4.48,9.4-10s-4.21-10-9.4-10Z" transform="translate(-217.77 -337.25)"/><path class="cls-1" d="M297.5,465.35a40,40,0,0,1-14.85-77.14V371.52h30.53l0,17a40,40,0,0,1-15.71,76.79Z" transform="translate(-217.77 -337.25)"/><path class="cls-1" d="M311.19,373.52l0,16.39a38,38,0,1,1-26.56-.32V373.52h26.54m4-4H280.65v17.36a42,42,0,1,0,34.56.38l0-13.75v-4Z" transform="translate(-217.77 -337.25)"/><path class="cls-3" d="M290.62,363.51a6.1,6.1,0,1,1,6.1-6.1A6.11,6.11,0,0,1,290.62,363.51Z" transform="translate(-217.77 -337.25)"/><path class="cls-1" d="M290.62,353.32a4.1,4.1,0,1,1-4.1,4.09,4.1,4.1,0,0,1,4.1-4.09m0-4a8.1,8.1,0,1,0,8.1,8.09,8.1,8.1,0,0,0-8.1-8.09Z" transform="translate(-217.77 -337.25)"/><path class="cls-3" d="M300.64,360a7,7,0,1,1,7-7A7,7,0,0,1,300.64,360Z" transform="translate(-217.77 -337.25)"/><path class="cls-1" d="M300.64,348a5,5,0,1,1-5,5,5,5,0,0,1,5-5m0-4a9,9,0,1,0,9,9,9,9,0,0,0-9-9Z" transform="translate(-217.77 -337.25)"/><path class="cls-3" d="M299.78,348.37a4.06,4.06,0,1,1,4.06-4.06A4.07,4.07,0,0,1,299.78,348.37Z" transform="translate(-217.77 -337.25)"/><path class="cls-1" d="M299.78,342.25a2.06,2.06,0,1,1-2.07,2.06,2.06,2.06,0,0,1,2.07-2.06m0-4a6.06,6.06,0,1,0,6.06,6.06,6.07,6.07,0,0,0-6.06-6.06Z" transform="translate(-217.77 -337.25)"/><path class="cls-2" d="M317.47,368.43a5.71,5.71,0,0,1-5.4,6h-27.7a5.71,5.71,0,0,1-5.41-6h0a5.71,5.71,0,0,1,5.41-6h27.7a5.7,5.7,0,0,1,5.4,6Z" transform="translate(-217.77 -337.25)"/><path class="cls-2" d="M311.21,390.17a38,38,0,1,1-26.56-.32V373.78h26.54Z" transform="translate(-217.77 -337.25)"/><path class="cls-1" d="M287,396.27a2,2,0,0,1-.46,2.77,23.4,23.4,0,0,0-5.42,2.84,30.32,30.32,0,0,0-4.79,5,2,2,0,0,1-2.79-.28h0c-.64-.84-.07-1.73.46-2.77a20.08,20.08,0,0,1,4.56-4.82,22.84,22.84,0,0,1,5.65-3c1.22-.44,2.14-.57,2.79.27Z" transform="translate(-217.77 -337.25)"/><path class="cls-4" d="M290.68,402.8c-1.45,5.39-.76,7.78,3.49,10.37,4.07,2.49,8.5,4.4,12.69,6.71a51.11,51.11,0,0,1,8.41,5.28c4.72,4,4,10.09-1.74,12.56a41,41,0,0,1-11.9,2.74c-6.28.67-12.61.32-18.37-2.59a28.31,28.31,0,0,1-6.93-5.27c-1.8-1.8-2.72-4.64-1.15-6.72,1.15-1.52,3.59-2.53,5.69-2.81,2.86-.4,3.09.11,5.28.25-3.68-3.83-7.19-7.47-4.54-12.9C283.4,406.75,286.45,404.47,290.68,402.8Z" transform="translate(-217.77 -337.25)"/><path class="cls-4" d="M316.55,419.83c-6.13-2.42-11.77-4.58-17.35-6.88a8.25,8.25,0,0,1-3.82-2.58,3.85,3.85,0,0,1-.66-3.1,3.74,3.74,0,0,1,2.77-1.63,16.72,16.72,0,0,1,2.34-.05,14.1,14.1,0,0,1-1-1.56c-.89-1.78-1.28-3.65-.54-5s3.29-2.07,5-2a7.93,7.93,0,0,1,4.8,2.46C313.36,405.13,315.41,412.16,316.55,419.83Z" transform="translate(-217.77 -337.25)"/><polygon class="cls-1" points="57.43 97.7 55.26 97.7 63.14 113.4 65.5 113.4 66.03 115.3 68.98 114.71 69.9 116.88 72.79 116.03 70.96 105.06 66.95 106.83 66.1 103.5 62.02 104.67 61.43 101.58 58.35 101.78 58.67 99.28 56.61 99.22 57.43 97.7"/><polygon class="cls-5" points="70.96 105.06 72.79 107.82 76.81 105.78 80.2 108.21 83.1 105.45 86.85 107.88 89.14 105.06 92.89 106.64 94.53 103.5 98.4 104.4 98.4 101.84 102.28 101.84 102.28 99.74 103.66 99.74 103.66 97.7 104.77 97.7 104.38 99.94 98.47 111.63 97.35 111.63 96.96 113.33 95.25 113.33 94.33 115.11 91.51 115.11 90.39 116.88 87.8 116.03 85.8 118.13 82.84 116.49 80.2 118.85 77.72 116.62 74.89 118.19 72.79 116.03 70.96 105.06"/><polygon class="cls-1" points="73.15 108.02 76.71 106.24 77.52 116.55 75.03 117.93 73.15 108.02"/><polygon class="cls-1" points="80.24 108.78 83.18 106.12 82.68 116.29 80.2 118.52 80.24 108.78"/><polygon class="cls-1" points="86.94 108.51 89.24 105.78 87.7 115.7 85.8 117.77 86.94 108.51"/><polygon class="cls-1" points="93.02 107.03 94.63 103.75 91.57 114.75 90.46 116.49 93.02 107.03"/><path class="cls-3" d="M306.43,383.91a5.9,5.9,0,1,1-5.89-5.9A5.9,5.9,0,0,1,306.43,383.91Z" transform="translate(-217.77 -337.25)"/><path class="cls-3" d="M296.59,391.91a3.27,3.27,0,1,1-3.27-3.26A3.27,3.27,0,0,1,296.59,391.91Z" transform="translate(-217.77 -337.25)"/><path class="cls-6" d="M223.27,464.65c.08-.45.14-.91.25-1.36a10.74,10.74,0,0,1,3-5.18,17.66,17.66,0,0,1,6.16-3.91,24.5,24.5,0,0,1,4.74-1.38,18.2,18.2,0,0,1,4-.2,17,17,0,0,1,3.33.45,8.62,8.62,0,0,1,4.22,2.55,2.42,2.42,0,0,1,.66,1.77,3.83,3.83,0,0,1-.83,2.46,3.37,3.37,0,0,1-.81.64.82.82,0,0,1-1-.09,1.58,1.58,0,0,1-.37-.36,9,9,0,0,0-4.88-3.17,12.24,12.24,0,0,0-11.11,2.27,7.29,7.29,0,0,0-2.75,4.31,6,6,0,0,0,.47,3.62,7.2,7.2,0,0,0,3.8,3.78,25.36,25.36,0,0,0,4.57,1.55,37.45,37.45,0,0,1,6.12,2,11.34,11.34,0,0,1,3.86,2.67,8.61,8.61,0,0,1,2.23,5,11.28,11.28,0,0,1-1.19,6.07,14.35,14.35,0,0,1-4.7,5.69A13.68,13.68,0,0,1,238,496a13.26,13.26,0,0,1-4.07.21,8.78,8.78,0,0,1-4.38-1.47,6.29,6.29,0,0,1-2-2.56,1.66,1.66,0,0,1-.12-.5A.6.6,0,0,1,228,491a3.24,3.24,0,0,1,1,.1,23.77,23.77,0,0,0,4.49.88,11.44,11.44,0,0,0,4-.38,11.75,11.75,0,0,0,4.75-2.3,8.64,8.64,0,0,0,3.07-4.6,6.34,6.34,0,0,0-1.88-6.41,9.08,9.08,0,0,0-4.16-2.23c-1.31-.34-2.65-.6-4-.88a30.84,30.84,0,0,1-6.9-2.08,8.42,8.42,0,0,1-4.2-4.2,9,9,0,0,1-.89-3.11.29.29,0,0,0,0-.1Z" transform="translate(-217.77 -337.25)"/><path class="cls-6" d="M350.5,484.72c-.67.31-1.3.66-2,.9a3.84,3.84,0,0,1-3.84-.71,3.49,3.49,0,0,1-1.23-2.33c-.09-.73-.09-1.48-.13-2.21v-.28c-.25.18-.45.35-.67.5-1,.76-2.11,1.52-3.17,2.26a3.13,3.13,0,0,1-1.42.62,5.06,5.06,0,0,1-.87,0l.07,0a153.37,153.37,0,0,0,14.68,8.91,43.5,43.5,0,0,0,7.13,3,18.21,18.21,0,0,0,5.81.93,7.57,7.57,0,0,0,5.53-2.35c.15-.16.31-.31.47-.45a1.63,1.63,0,0,1,.35-.23c.14-.08.34-.18.45,0a.5.5,0,0,1,0,.43,16.91,16.91,0,0,1-1,1.58,9.84,9.84,0,0,1-4.24,3.3,10.21,10.21,0,0,1-2.84.6,15.8,15.8,0,0,1-3.15-.06,18.89,18.89,0,0,1-3.55-.84,45.37,45.37,0,0,1-8.59-3.94,130.33,130.33,0,0,1-14.84-9.91c-1.15-.89-2.21-1.91-3.31-2.86-.65-.58-1.3-1.15-2-1.71-.4-.34-.43-.32-.8.05s-.47.46-.68.71a5.69,5.69,0,0,1-2.94,1.67,6.54,6.54,0,0,1-3.59-.06,3.15,3.15,0,0,1-2.36-3.35,3.74,3.74,0,0,1,3.23-3.73,3.16,3.16,0,0,1,1.46.14c.64.16,1.29.33,1.93.51a.71.71,0,0,0,.85-.33,14.28,14.28,0,0,0,1.34-2.68c1-2.47,1.74-5,2.53-7.57a71.32,71.32,0,0,1,2.48-7.21,22.42,22.42,0,0,1,2.67-4.81,9,9,0,0,1,5.33-3.48,9.22,9.22,0,0,1,6.87,1,6.89,6.89,0,0,1,2,1.82,4.46,4.46,0,0,1,.59,4.3,9.29,9.29,0,0,1-3.61,4.75,12.44,12.44,0,0,1-5.42,2.16c-.65.1-1.31.16-2,.27a1.18,1.18,0,0,1-1.39-1,1.57,1.57,0,0,1,1.24-1.92l2.07-.29a5.87,5.87,0,0,0,5.26-4.51,8,8,0,0,0,.4-2.57,2.92,2.92,0,0,0-.74-1.95,2.52,2.52,0,0,0-2.64-.66,6.27,6.27,0,0,0-3.56,2.42,15,15,0,0,0-2.33,4.55c-.82,2.55-1.57,5.13-2.36,7.7-.7,2.27-1.36,4.54-2.11,6.8a17.92,17.92,0,0,1-1.15,2.43c-.35.7-.77,1.38-1.13,2.08s-.39.69.25,1.24a25,25,0,0,0,2.18,1.66c1.27.89,2.56,1.75,3.85,2.62,0,0,0,0,.1,0l-.19-.17a2.63,2.63,0,0,1-.78-2.66,12.89,12.89,0,0,1,1.91-4.32,15.62,15.62,0,0,1,3.78-4.08,5.91,5.91,0,0,1,4.22-1.16,10.88,10.88,0,0,1,4.31,1.32,3.62,3.62,0,0,1,1.5,1.5,1.23,1.23,0,0,1-.6,1.85,2.65,2.65,0,0,1-2,.17c-.4-.11-.46-.3-.3-.68a4.15,4.15,0,0,0,.25-.85.57.57,0,0,0-.4-.63,1.75,1.75,0,0,0-1.15-.07,5.91,5.91,0,0,0-1.79.81,15.77,15.77,0,0,0-5.9,6.56,5.74,5.74,0,0,0-.38,1.15.47.47,0,0,0,.13.42.51.51,0,0,0,.45,0,5.32,5.32,0,0,0,.95-.75c.95-1,1.88-2,2.81-3,.65-.71,1.28-1.44,1.95-2.14a2.27,2.27,0,0,1,1.63-.76,4.75,4.75,0,0,1,2.13.45,3.38,3.38,0,0,1,.7.43.91.91,0,0,1,.29,1,2.6,2.6,0,0,1-.28.61,22.06,22.06,0,0,0-2.2,4.88,2,2,0,0,0-.06,1.12c.08.34.22.44.56.33a2.58,2.58,0,0,0,.54-.23,8.58,8.58,0,0,0,2.84-2.45,1.63,1.63,0,0,0,.11-.17c.59-1.29,1.16-2.59,1.79-3.86a53.72,53.72,0,0,1,8.64-12.69c.71-.77,1.5-1.49,2.23-2.26a1.19,1.19,0,0,1,1.36-.32,4.08,4.08,0,0,1,2,1.32,1.36,1.36,0,0,1-.06,2c-.85,1-1.72,1.91-2.58,2.85a59.7,59.7,0,0,0-5.89,7.47l-.1.17,1-.26a6,6,0,0,1,2.19-.2,3.69,3.69,0,0,1,3.19,3.19,6,6,0,0,1-.68,3.21,9.18,9.18,0,0,1-1.7,2.4c-.28.31-.55.63-.84,1a1.51,1.51,0,0,0,1.19.23,3.81,3.81,0,0,0,1.47-.85c.19-.16.37-.33.55-.5a.77.77,0,0,1,.8-.19,1.49,1.49,0,0,1,1,.77.77.77,0,0,1-.13,1,5,5,0,0,1-3.27,1.68,2.9,2.9,0,0,1-1.33-.25l-1.37-.56a.51.51,0,0,0-.58.07c-.22.17-.45.33-.66.5a6.52,6.52,0,0,1-3.21,1.41,5.4,5.4,0,0,1-4.81-1.69,3,3,0,0,1-.73-1.89Zm3.26.67c0,.74.33,1,.95.88a2.9,2.9,0,0,0,.93-.38,9.52,9.52,0,0,0,1.22-1,15.39,15.39,0,0,0,3.58-5.52,4.14,4.14,0,0,0,.33-1.55.83.83,0,0,0-1-.89,1.36,1.36,0,0,0-.29.06,5.47,5.47,0,0,0-3.11,2.32,23,23,0,0,0-2.08,4.15A7.31,7.31,0,0,0,353.76,485.39Zm-30-7.62-.11-.06-.2-.07a4.43,4.43,0,0,0-2.17,0,4.77,4.77,0,0,0-1.51.53,1,1,0,0,0,.35,1.85,2.11,2.11,0,0,0,1.62-.32,8.94,8.94,0,0,0,1.88-1.7C323.7,477.91,323.73,477.85,323.79,477.77Z" transform="translate(-217.77 -337.25)"/><path class="cls-6" d="M304.52,454.76a6.25,6.25,0,0,0,.84.17c1.29.12,2.59.22,3.88.32s2.35.18,3.52.24c1.75.11,3.51.21,5.26.27,1,0,2.09,0,3.14,0a14.14,14.14,0,0,0,3.71-.52,2.32,2.32,0,0,0,1.17-.72,1.16,1.16,0,0,0,.26-.91c0-.22-.05-.44-.06-.65a2,2,0,0,0-.27-1c0-.07-.06-.15-.12-.29a2,2,0,0,1,.39.1,4.55,4.55,0,0,1,2.22,2.41,2.71,2.71,0,0,1-1.13,3.35,6.71,6.71,0,0,1-2.48,1,24.39,24.39,0,0,1-6.15.37c-1.25-.06-2.51-.14-3.76-.24s-2.7-.27-4-.42-2.65-.32-4-.5c-.83-.11-1.65-.27-2.47-.4l-.24,0c-.66-.07-.66-.07-.94.54a35.19,35.19,0,0,0-2.09,6.16,55.9,55.9,0,0,0-1.12,5.71,25.09,25.09,0,0,0-.31,4.82,7,7,0,0,0,.35,2.07,1.46,1.46,0,0,0,.83,1,1.21,1.21,0,0,0,1-.15,4.93,4.93,0,0,0,1.46-1.38,10.52,10.52,0,0,0,1.9-4.59c.06-.34.11-.4.46-.42a2.79,2.79,0,0,1,1.47.33c.24.13.31.27.25.49a19.83,19.83,0,0,1-1.63,4.09,8.6,8.6,0,0,1-2.12,2.57,5.15,5.15,0,0,1-3.72,1,4.65,4.65,0,0,1-1.6-.36,3.17,3.17,0,0,1-1.52-1.35c-.32-.53-.57-1.1-.85-1.66l-.38.4a10.55,10.55,0,0,1-5.55,3.19,9.26,9.26,0,0,1-4,0,4.76,4.76,0,0,1-2.82-1.87l-.18-.26c-.39.38-.75.78-1.15,1.13a9.88,9.88,0,0,1-6.08,2.53,6.72,6.72,0,0,1-2.71-.29,5,5,0,0,1-3-2.94,2.44,2.44,0,0,0-.1-.24l-.82.25a2.74,2.74,0,0,1-1.93-.17c-.52-.21-1-.47-1.57-.72,0,.13-.1.28-.15.44-.42,1.54-.85,3.08-1.26,4.62a1.88,1.88,0,0,1-1,1.25,5.29,5.29,0,0,1-4.4.25,1.06,1.06,0,0,1-.76-1.33c.11-.86.23-1.71.31-2.57a12.54,12.54,0,0,0-.07-3.06l-.33-2.12a.19.19,0,0,0-.07-.12l-.24,1.48c-.44,2.66-.79,5.33-1.39,8-.08.34-.2.67-.29,1a1,1,0,0,1-.92.75,6.18,6.18,0,0,1-2-.09,7.61,7.61,0,0,1-2.57-1,2.28,2.28,0,0,1-1-1.14,23.92,23.92,0,0,1-1-3.42c-.5-2.06-.9-4.14-1.22-6.24,0-.21-.05-.42-.08-.63a.73.73,0,0,1,.27-.64,3,3,0,0,1,1.3-.66,4.56,4.56,0,0,1,3.07,0,1,1,0,0,1,.74.93c0,.15,0,.31,0,.47,0,.9,0,1.8,0,2.7s.16,2,.29,2.94a24.09,24.09,0,0,0,.82,3.95,2,2,0,0,0,.25.53c.23.37.55.37.75,0a2.93,2.93,0,0,0,.3-.81c.42-2,.8-4,1-6.06a17.76,17.76,0,0,0,.14-3.34,4.18,4.18,0,0,1,0-.79,1,1,0,0,1,.66-.87,3.81,3.81,0,0,1,2.8-.06,2.34,2.34,0,0,1,.24.09,1.39,1.39,0,0,1,1,1.35c.05,1.29.12,2.58.22,3.87s.25,2.55.39,3.83a1.31,1.31,0,0,0,.1.32l.06,0a1.86,1.86,0,0,0,.18-.34c.25-.85.53-1.69.71-2.55a27.9,27.9,0,0,0,.65-5.61,12.44,12.44,0,0,0-.33-3,.77.77,0,0,1,.47-1,4.1,4.1,0,0,1,1.46-.38,5.7,5.7,0,0,1,1.84.13,1.33,1.33,0,0,1,.28.1.39.39,0,0,1,.29.45,27.47,27.47,0,0,0-.1,3.85,15.54,15.54,0,0,0,.35,2.8,4,4,0,0,0,.15.45.8.8,0,0,0,1.17.42,1.32,1.32,0,0,0,.79-1.15,9.77,9.77,0,0,1,.61-3.12,10.85,10.85,0,0,1,2.54-3.8,8,8,0,0,1,4.74-2.24,4.12,4.12,0,0,1,1.64,0,2.47,2.47,0,0,1,1.86,2,4.67,4.67,0,0,1-.39,2.94,5.74,5.74,0,0,1-2.44,2.78,3.82,3.82,0,0,1-2.58.45c-.38-.07-.76-.09-1.15-.13a.28.28,0,0,0-.33.21,4.72,4.72,0,0,0-.26,3.1,2.55,2.55,0,0,0,2.85,1.83,6.14,6.14,0,0,0,2.83-1.25,10.26,10.26,0,0,0,2.5-2.59.61.61,0,0,0,.1-.37,9.76,9.76,0,0,1,3.42-8.08,8,8,0,0,1,5-2.08,4.91,4.91,0,0,1,1.53.07,2.52,2.52,0,0,1,1.91,2.08,4.84,4.84,0,0,1-.65,3.16,5.5,5.5,0,0,1-3.54,2.81,3.79,3.79,0,0,1-1.64-.08l-1.15-.2a.26.26,0,0,0-.31.15,4.53,4.53,0,0,0-.41,3.4,2.44,2.44,0,0,0,2.36,1.73,5,5,0,0,0,2.52-.66,10.67,10.67,0,0,0,4.23-4.09.56.56,0,0,0,.05-.29,26,26,0,0,1,.13-4,70,70,0,0,1,2.21-11.11c.08-.3.13-.61.21-.91a.23.23,0,0,0-.19-.32,11.88,11.88,0,0,0-1.32-.27c-1.71-.18-3.43-.37-5.15-.5a17.26,17.26,0,0,0-7.38.8,12.76,12.76,0,0,0-1.33.54c-.43.21-.84.48-1.25.73s-.39.18-.59-.06A1.14,1.14,0,0,1,281,456a4.82,4.82,0,0,1,2.05-1.13,17.83,17.83,0,0,1,3.69-.71,33.74,33.74,0,0,1,4.82-.11c1,0,1.91.17,2.86.27,1.2.12,2.39.27,3.59.36.71.05.84-.08,1.1-.74.14-.34.25-.7.4-1a2.62,2.62,0,0,1,1.57-1.63,4.48,4.48,0,0,1,3.89.53,1.22,1.22,0,0,1,.28,1.89c-.26.33-.5.68-.75,1Zm-28.4,17.78a2.14,2.14,0,0,0,1-.35,3.94,3.94,0,0,0,1.64-2.1,2.62,2.62,0,0,0,.14-1.36.87.87,0,0,0-1.32-.64,2.19,2.19,0,0,0-.44.31,7.25,7.25,0,0,0-2,3.09,1.69,1.69,0,0,0-.07.45.33.33,0,0,0,.24.37Zm12.81-1.25a5.34,5.34,0,0,0,.88-.3,3.86,3.86,0,0,0,1.86-2.15,2.31,2.31,0,0,0,.16-1.3.86.86,0,0,0-1.18-.64,2.81,2.81,0,0,0-.66.41,7.33,7.33,0,0,0-2,2.66,2.55,2.55,0,0,0-.18.53.36.36,0,0,0,.18.45C288.28,471.08,288.6,471.18,288.93,471.29Z" transform="translate(-217.77 -337.25)"/><path class="cls-7" d="M223.27,464.65c.08-.45.14-.91.25-1.36a10.74,10.74,0,0,1,3-5.18,17.66,17.66,0,0,1,6.16-3.91,24.5,24.5,0,0,1,4.74-1.38,18.2,18.2,0,0,1,4-.2,17,17,0,0,1,3.33.45,8.62,8.62,0,0,1,4.22,2.55,2.42,2.42,0,0,1,.66,1.77,3.83,3.83,0,0,1-.83,2.46,3.37,3.37,0,0,1-.81.64.82.82,0,0,1-1-.09,1.58,1.58,0,0,1-.37-.36,9,9,0,0,0-4.88-3.17,12.24,12.24,0,0,0-11.11,2.27,7.29,7.29,0,0,0-2.75,4.31,6,6,0,0,0,.47,3.62,7.2,7.2,0,0,0,3.8,3.78,25.36,25.36,0,0,0,4.57,1.55,37.45,37.45,0,0,1,6.12,2,11.24,11.24,0,0,1,3.86,2.67,8.61,8.61,0,0,1,2.23,5,11.28,11.28,0,0,1-1.19,6.07,14.35,14.35,0,0,1-4.7,5.69A13.68,13.68,0,0,1,238,496a13.26,13.26,0,0,1-4.07.21,8.78,8.78,0,0,1-4.38-1.47,6.29,6.29,0,0,1-2-2.56,1.66,1.66,0,0,1-.12-.5A.6.6,0,0,1,228,491a3.24,3.24,0,0,1,1,.1,23.77,23.77,0,0,0,4.49.88,11.44,11.44,0,0,0,4-.38,11.75,11.75,0,0,0,4.75-2.3,8.64,8.64,0,0,0,3.07-4.6,6.34,6.34,0,0,0-1.88-6.41,9.08,9.08,0,0,0-4.16-2.23c-1.31-.34-2.65-.6-4-.88a30.84,30.84,0,0,1-6.9-2.08,8.42,8.42,0,0,1-4.2-4.2,9,9,0,0,1-.89-3.11.29.29,0,0,0,0-.1Z" transform="translate(-217.77 -337.25)"/><path class="cls-7" d="M350.5,484.72c-.67.31-1.3.66-2,.9a3.84,3.84,0,0,1-3.84-.71,3.49,3.49,0,0,1-1.23-2.33c-.09-.73-.09-1.48-.13-2.21v-.28c-.25.18-.45.35-.67.5-1,.76-2.11,1.52-3.17,2.26a3.13,3.13,0,0,1-1.42.62,5.06,5.06,0,0,1-.87,0l.07,0a153.37,153.37,0,0,0,14.68,8.91,43.5,43.5,0,0,0,7.13,3,18.21,18.21,0,0,0,5.81.93,7.57,7.57,0,0,0,5.53-2.35c.15-.16.31-.31.47-.45a1.63,1.63,0,0,1,.35-.23c.14-.08.34-.18.45,0a.5.5,0,0,1,0,.43,16.91,16.91,0,0,1-1,1.58,9.84,9.84,0,0,1-4.24,3.3,10.21,10.21,0,0,1-2.84.6,15.8,15.8,0,0,1-3.15-.06,18.89,18.89,0,0,1-3.55-.84,45.37,45.37,0,0,1-8.59-3.94,130.33,130.33,0,0,1-14.84-9.91c-1.15-.89-2.21-1.91-3.31-2.86-.65-.58-1.3-1.15-2-1.71-.4-.34-.43-.32-.8.05s-.47.46-.68.71a5.69,5.69,0,0,1-2.94,1.67,6.54,6.54,0,0,1-3.59-.06,3.15,3.15,0,0,1-2.36-3.35,3.74,3.74,0,0,1,3.23-3.73,3.16,3.16,0,0,1,1.46.14c.64.16,1.29.33,1.93.51a.71.71,0,0,0,.85-.33,14.28,14.28,0,0,0,1.34-2.68c1-2.47,1.74-5,2.53-7.57a71.32,71.32,0,0,1,2.48-7.21,22.42,22.42,0,0,1,2.67-4.81,9,9,0,0,1,5.33-3.48,9.22,9.22,0,0,1,6.87,1,6.89,6.89,0,0,1,2,1.82,4.46,4.46,0,0,1,.59,4.3,9.29,9.29,0,0,1-3.61,4.75,12.44,12.44,0,0,1-5.42,2.16c-.65.1-1.31.16-2,.27a1.18,1.18,0,0,1-1.39-1,1.57,1.57,0,0,1,1.24-1.92l2.07-.29a5.87,5.87,0,0,0,5.26-4.51,8,8,0,0,0,.4-2.57,2.92,2.92,0,0,0-.74-1.95,2.52,2.52,0,0,0-2.64-.66,6.27,6.27,0,0,0-3.56,2.42,15,15,0,0,0-2.33,4.55c-.82,2.55-1.57,5.13-2.36,7.7-.7,2.27-1.36,4.54-2.11,6.8a17.92,17.92,0,0,1-1.15,2.43c-.35.7-.77,1.38-1.13,2.08s-.39.69.25,1.24a25,25,0,0,0,2.18,1.66c1.27.89,2.56,1.75,3.85,2.62,0,0,0,0,.1,0l-.19-.17a2.63,2.63,0,0,1-.78-2.66,12.89,12.89,0,0,1,1.91-4.32,15.62,15.62,0,0,1,3.78-4.08,5.91,5.91,0,0,1,4.22-1.16,10.88,10.88,0,0,1,4.31,1.32,3.62,3.62,0,0,1,1.5,1.5,1.23,1.23,0,0,1-.6,1.85,2.65,2.65,0,0,1-2,.17c-.4-.11-.46-.3-.3-.68a4.15,4.15,0,0,0,.25-.85.57.57,0,0,0-.4-.63,1.75,1.75,0,0,0-1.15-.07,5.91,5.91,0,0,0-1.79.81,15.77,15.77,0,0,0-5.9,6.56,5.74,5.74,0,0,0-.38,1.15.47.47,0,0,0,.13.42.51.51,0,0,0,.45,0,5.32,5.32,0,0,0,.95-.75c.95-1,1.88-2,2.81-3,.65-.71,1.28-1.44,1.95-2.14a2.27,2.27,0,0,1,1.63-.76,4.75,4.75,0,0,1,2.13.45,3.38,3.38,0,0,1,.7.43.91.91,0,0,1,.29,1,2.6,2.6,0,0,1-.28.61,22.06,22.06,0,0,0-2.2,4.88,2,2,0,0,0-.06,1.12c.08.34.22.44.56.33a2.58,2.58,0,0,0,.54-.23,8.58,8.58,0,0,0,2.84-2.45,1.63,1.63,0,0,0,.11-.17c.59-1.29,1.16-2.59,1.79-3.86a53.72,53.72,0,0,1,8.64-12.69c.71-.77,1.5-1.49,2.23-2.26a1.19,1.19,0,0,1,1.36-.32,4.08,4.08,0,0,1,2,1.32,1.36,1.36,0,0,1-.06,2c-.85,1-1.72,1.91-2.58,2.85a59.7,59.7,0,0,0-5.89,7.47l-.1.17,1-.26a6,6,0,0,1,2.19-.2,3.69,3.69,0,0,1,3.19,3.19,6,6,0,0,1-.68,3.21,9.18,9.18,0,0,1-1.7,2.4c-.28.31-.55.63-.84,1a1.51,1.51,0,0,0,1.19.23,3.81,3.81,0,0,0,1.47-.85c.19-.16.37-.33.55-.5a.77.77,0,0,1,.8-.19,1.49,1.49,0,0,1,1,.77.77.77,0,0,1-.13,1,5,5,0,0,1-3.27,1.68,2.9,2.9,0,0,1-1.33-.25l-1.37-.56a.51.51,0,0,0-.58.07c-.22.17-.45.33-.66.5a6.52,6.52,0,0,1-3.21,1.41,5.4,5.4,0,0,1-4.81-1.69,3,3,0,0,1-.73-1.89Zm3.26.67c0,.74.33,1,.95.88a2.9,2.9,0,0,0,.93-.38,9.52,9.52,0,0,0,1.22-1,15.39,15.39,0,0,0,3.58-5.52,4.14,4.14,0,0,0,.33-1.55.83.83,0,0,0-1-.89,1.36,1.36,0,0,0-.29.06,5.47,5.47,0,0,0-3.11,2.32,23,23,0,0,0-2.08,4.15A7.31,7.31,0,0,0,353.76,485.39Zm-30-7.62-.11-.06-.2-.07a4.43,4.43,0,0,0-2.17,0,4.77,4.77,0,0,0-1.51.53,1,1,0,0,0,.35,1.85,2.11,2.11,0,0,0,1.62-.32,8.94,8.94,0,0,0,1.88-1.7C323.7,477.91,323.73,477.85,323.79,477.77Z" transform="translate(-217.77 -337.25)"/><path class="cls-7" d="M304.52,454.76a6.25,6.25,0,0,0,.84.17c1.29.12,2.59.22,3.88.32s2.35.18,3.52.24c1.75.11,3.51.21,5.26.27,1,0,2.09,0,3.14,0a14.14,14.14,0,0,0,3.71-.52,2.32,2.32,0,0,0,1.17-.72,1.16,1.16,0,0,0,.26-.91c0-.22-.05-.44-.06-.65a2,2,0,0,0-.27-1c0-.07-.06-.15-.12-.29a2,2,0,0,1,.39.1,4.55,4.55,0,0,1,2.22,2.41,2.71,2.71,0,0,1-1.13,3.35,6.71,6.71,0,0,1-2.48,1,24.39,24.39,0,0,1-6.15.37c-1.25-.06-2.51-.14-3.76-.24s-2.7-.27-4-.42-2.65-.32-4-.5c-.83-.11-1.65-.27-2.47-.4l-.24,0c-.66-.07-.66-.07-.94.54a35.19,35.19,0,0,0-2.09,6.16,55.9,55.9,0,0,0-1.12,5.71,25.09,25.09,0,0,0-.31,4.82,7,7,0,0,0,.35,2.07,1.46,1.46,0,0,0,.83,1,1.21,1.21,0,0,0,1-.15,4.93,4.93,0,0,0,1.46-1.38,10.52,10.52,0,0,0,1.9-4.59c.06-.34.11-.4.46-.42a2.79,2.79,0,0,1,1.47.33c.24.13.31.27.25.49a19.83,19.83,0,0,1-1.63,4.09,8.6,8.6,0,0,1-2.12,2.57,5.15,5.15,0,0,1-3.72,1,4.65,4.65,0,0,1-1.6-.36,3.17,3.17,0,0,1-1.52-1.35c-.32-.53-.57-1.1-.85-1.66l-.38.4a10.55,10.55,0,0,1-5.55,3.19,9.26,9.26,0,0,1-4,0,4.76,4.76,0,0,1-2.82-1.87l-.18-.26c-.39.38-.75.78-1.15,1.13a9.88,9.88,0,0,1-6.08,2.53,6.72,6.72,0,0,1-2.71-.29,5,5,0,0,1-3-2.94,2.44,2.44,0,0,0-.1-.24l-.82.25a2.74,2.74,0,0,1-1.93-.17c-.52-.21-1-.47-1.57-.72-.05.13-.1.28-.15.44-.42,1.54-.85,3.08-1.26,4.62a1.88,1.88,0,0,1-1,1.25,5.29,5.29,0,0,1-4.4.25,1.06,1.06,0,0,1-.76-1.33c.1-.86.23-1.71.31-2.57a12.54,12.54,0,0,0-.07-3.06l-.33-2.12a.25.25,0,0,0-.07-.12l-.24,1.48c-.44,2.66-.79,5.33-1.39,8-.08.34-.2.67-.29,1a1,1,0,0,1-.92.75,6.18,6.18,0,0,1-2-.09,7.61,7.61,0,0,1-2.57-1,2.28,2.28,0,0,1-1-1.14,23.92,23.92,0,0,1-1-3.42c-.5-2.06-.9-4.14-1.22-6.24,0-.21-.05-.42-.08-.63a.73.73,0,0,1,.27-.64,3,3,0,0,1,1.3-.66,4.56,4.56,0,0,1,3.07,0,1,1,0,0,1,.74.93c0,.15,0,.31,0,.47,0,.9,0,1.8,0,2.7s.16,2,.29,2.94a24.09,24.09,0,0,0,.82,3.95,2,2,0,0,0,.25.53c.23.37.55.37.75,0a2.93,2.93,0,0,0,.3-.81c.42-2,.8-4,1-6.06a17.76,17.76,0,0,0,.14-3.34,4.18,4.18,0,0,1,0-.79,1,1,0,0,1,.66-.87,3.81,3.81,0,0,1,2.8-.06,2.34,2.34,0,0,1,.24.09,1.39,1.39,0,0,1,1,1.35c.05,1.29.12,2.58.22,3.87s.25,2.55.39,3.83a1.92,1.92,0,0,0,.09.32l.07,0a1.86,1.86,0,0,0,.18-.34c.25-.85.53-1.69.71-2.55a27.9,27.9,0,0,0,.65-5.61,12.44,12.44,0,0,0-.33-3,.77.77,0,0,1,.47-1,4.1,4.1,0,0,1,1.46-.38,5.7,5.7,0,0,1,1.84.13,1.33,1.33,0,0,1,.28.1.39.39,0,0,1,.29.45,27.47,27.47,0,0,0-.1,3.85,15.54,15.54,0,0,0,.35,2.8,4,4,0,0,0,.15.45.8.8,0,0,0,1.17.42,1.32,1.32,0,0,0,.79-1.15,9.77,9.77,0,0,1,.61-3.12,10.85,10.85,0,0,1,2.54-3.8,8,8,0,0,1,4.74-2.24,4.12,4.12,0,0,1,1.64,0,2.47,2.47,0,0,1,1.86,2,4.67,4.67,0,0,1-.39,2.94,5.74,5.74,0,0,1-2.44,2.78,3.82,3.82,0,0,1-2.58.45c-.38-.07-.76-.09-1.15-.13a.28.28,0,0,0-.33.21,4.66,4.66,0,0,0-.25,3.1,2.54,2.54,0,0,0,2.84,1.83,6.14,6.14,0,0,0,2.83-1.25,10.26,10.26,0,0,0,2.5-2.59.61.61,0,0,0,.1-.37,9.76,9.76,0,0,1,3.42-8.08,8,8,0,0,1,5-2.08,4.91,4.91,0,0,1,1.53.07,2.52,2.52,0,0,1,1.91,2.08,4.84,4.84,0,0,1-.65,3.16,5.5,5.5,0,0,1-3.54,2.81,3.79,3.79,0,0,1-1.64-.08l-1.15-.2a.26.26,0,0,0-.31.15,4.53,4.53,0,0,0-.41,3.4,2.44,2.44,0,0,0,2.36,1.73,5,5,0,0,0,2.52-.66,10.67,10.67,0,0,0,4.23-4.09.56.56,0,0,0,.05-.29,26,26,0,0,1,.13-4,70,70,0,0,1,2.21-11.11c.08-.3.13-.61.21-.91a.23.23,0,0,0-.19-.32,11.88,11.88,0,0,0-1.32-.27c-1.71-.18-3.43-.37-5.15-.5a17.26,17.26,0,0,0-7.38.8,12.76,12.76,0,0,0-1.33.54c-.43.21-.84.48-1.25.73s-.39.18-.59-.06A1.14,1.14,0,0,1,281,456a4.82,4.82,0,0,1,2.05-1.13,17.83,17.83,0,0,1,3.69-.71,33.74,33.74,0,0,1,4.82-.11c1,0,1.91.17,2.86.27,1.2.12,2.39.27,3.59.36.71.05.84-.08,1.1-.74.14-.34.25-.7.4-1a2.62,2.62,0,0,1,1.57-1.63,4.48,4.48,0,0,1,3.89.53,1.22,1.22,0,0,1,.28,1.89c-.26.33-.5.68-.75,1Zm-28.4,17.78a2.14,2.14,0,0,0,1-.35,3.94,3.94,0,0,0,1.64-2.1,2.62,2.62,0,0,0,.14-1.36.87.87,0,0,0-1.32-.64,2.19,2.19,0,0,0-.44.31,7.25,7.25,0,0,0-2,3.09,1.69,1.69,0,0,0-.07.45.33.33,0,0,0,.24.37Zm12.81-1.25a5.34,5.34,0,0,0,.88-.3,3.86,3.86,0,0,0,1.86-2.15,2.31,2.31,0,0,0,.16-1.3.86.86,0,0,0-1.18-.64,2.81,2.81,0,0,0-.66.41,7.33,7.33,0,0,0-2,2.66,2.55,2.55,0,0,0-.18.53.36.36,0,0,0,.18.45C288.28,471.08,288.6,471.18,288.93,471.29Z" transform="translate(-217.77 -337.25)"/><path class="cls-8" d="M223.27,464.65c.08-.45.14-.91.25-1.36a10.74,10.74,0,0,1,3-5.18,17.66,17.66,0,0,1,6.16-3.91,24.5,24.5,0,0,1,4.74-1.38,18.2,18.2,0,0,1,4-.2,17,17,0,0,1,3.33.45,8.62,8.62,0,0,1,4.22,2.55,2.42,2.42,0,0,1,.66,1.77,3.83,3.83,0,0,1-.83,2.46,3.37,3.37,0,0,1-.81.64.82.82,0,0,1-1-.09,1.58,1.58,0,0,1-.37-.36,9,9,0,0,0-4.88-3.17,12.24,12.24,0,0,0-11.11,2.27,7.29,7.29,0,0,0-2.75,4.31,6,6,0,0,0,.47,3.62,7.2,7.2,0,0,0,3.8,3.78,25.36,25.36,0,0,0,4.57,1.55,37.45,37.45,0,0,1,6.12,2,11.34,11.34,0,0,1,3.86,2.67,8.61,8.61,0,0,1,2.23,5,11.28,11.28,0,0,1-1.19,6.07,14.35,14.35,0,0,1-4.7,5.69A13.68,13.68,0,0,1,238,496a13.26,13.26,0,0,1-4.07.21,8.78,8.78,0,0,1-4.38-1.47,6.29,6.29,0,0,1-2-2.56,1.66,1.66,0,0,1-.12-.5A.6.6,0,0,1,228,491a3.24,3.24,0,0,1,1,.1,23.77,23.77,0,0,0,4.49.88,11.44,11.44,0,0,0,4-.38,11.75,11.75,0,0,0,4.75-2.3,8.64,8.64,0,0,0,3.07-4.6,6.34,6.34,0,0,0-1.88-6.41,9.08,9.08,0,0,0-4.16-2.23c-1.31-.34-2.65-.6-4-.88a30.84,30.84,0,0,1-6.9-2.08,8.42,8.42,0,0,1-4.2-4.2,9,9,0,0,1-.89-3.11.29.29,0,0,0,0-.1Z" transform="translate(-217.77 -337.25)"/><path class="cls-8" d="M350.5,484.72c-.67.31-1.3.66-2,.9a3.84,3.84,0,0,1-3.84-.71,3.49,3.49,0,0,1-1.23-2.33c-.09-.73-.09-1.48-.13-2.21v-.28c-.25.18-.45.35-.67.5-1,.76-2.11,1.52-3.17,2.26a3.13,3.13,0,0,1-1.42.62,5.06,5.06,0,0,1-.87,0l.07,0a153.37,153.37,0,0,0,14.68,8.91,43.5,43.5,0,0,0,7.13,3,18.21,18.21,0,0,0,5.81.93,7.57,7.57,0,0,0,5.53-2.35c.15-.16.31-.31.47-.45a1.63,1.63,0,0,1,.35-.23c.14-.08.34-.18.45,0a.5.5,0,0,1,0,.43,16.91,16.91,0,0,1-1,1.58,9.84,9.84,0,0,1-4.24,3.3,10.21,10.21,0,0,1-2.84.6,15.8,15.8,0,0,1-3.15-.06,18.89,18.89,0,0,1-3.55-.84,45.37,45.37,0,0,1-8.59-3.94,130.33,130.33,0,0,1-14.84-9.91c-1.15-.89-2.21-1.91-3.31-2.86-.65-.58-1.3-1.15-2-1.71-.4-.34-.43-.32-.8.05s-.47.46-.68.71a5.69,5.69,0,0,1-2.94,1.67,6.54,6.54,0,0,1-3.59-.06,3.15,3.15,0,0,1-2.36-3.35,3.74,3.74,0,0,1,3.23-3.73,3.16,3.16,0,0,1,1.46.14c.64.16,1.29.33,1.93.51a.71.71,0,0,0,.85-.33,14.28,14.28,0,0,0,1.34-2.68c1-2.47,1.74-5,2.53-7.57a71.32,71.32,0,0,1,2.48-7.21,22.42,22.42,0,0,1,2.67-4.81,9,9,0,0,1,5.33-3.48,9.22,9.22,0,0,1,6.87,1,6.89,6.89,0,0,1,2,1.82,4.46,4.46,0,0,1,.59,4.3,9.29,9.29,0,0,1-3.61,4.75,12.44,12.44,0,0,1-5.42,2.16c-.65.1-1.31.16-2,.27a1.18,1.18,0,0,1-1.39-1,1.57,1.57,0,0,1,1.24-1.92l2.07-.29a5.87,5.87,0,0,0,5.26-4.51,8,8,0,0,0,.4-2.57,2.92,2.92,0,0,0-.74-1.95,2.52,2.52,0,0,0-2.64-.66,6.27,6.27,0,0,0-3.56,2.42,15,15,0,0,0-2.33,4.55c-.82,2.55-1.57,5.13-2.36,7.7-.7,2.27-1.36,4.54-2.11,6.8a17.92,17.92,0,0,1-1.15,2.43c-.35.7-.77,1.38-1.13,2.08s-.39.69.25,1.24a25,25,0,0,0,2.18,1.66c1.27.89,2.56,1.75,3.85,2.62,0,0,0,0,.1,0l-.19-.17a2.63,2.63,0,0,1-.78-2.66,12.89,12.89,0,0,1,1.91-4.32,15.62,15.62,0,0,1,3.78-4.08,5.91,5.91,0,0,1,4.22-1.16,10.88,10.88,0,0,1,4.31,1.32,3.62,3.62,0,0,1,1.5,1.5,1.23,1.23,0,0,1-.6,1.85,2.65,2.65,0,0,1-2,.17c-.4-.11-.46-.3-.3-.68a4.15,4.15,0,0,0,.25-.85.57.57,0,0,0-.4-.63,1.75,1.75,0,0,0-1.15-.07,5.91,5.91,0,0,0-1.79.81,15.77,15.77,0,0,0-5.9,6.56,5.74,5.74,0,0,0-.38,1.15.47.47,0,0,0,.13.42.51.51,0,0,0,.45,0,5.32,5.32,0,0,0,.95-.75c.95-1,1.88-2,2.81-3,.65-.71,1.28-1.44,1.95-2.14a2.27,2.27,0,0,1,1.63-.76,4.75,4.75,0,0,1,2.13.45,3.38,3.38,0,0,1,.7.43.91.91,0,0,1,.29,1,2.6,2.6,0,0,1-.28.61,22.06,22.06,0,0,0-2.2,4.88,2,2,0,0,0-.06,1.12c.08.34.22.44.56.33a2.58,2.58,0,0,0,.54-.23,8.58,8.58,0,0,0,2.84-2.45,1.63,1.63,0,0,0,.11-.17c.59-1.29,1.16-2.59,1.79-3.86a53.72,53.72,0,0,1,8.64-12.69c.71-.77,1.5-1.49,2.23-2.26a1.19,1.19,0,0,1,1.36-.32,4.08,4.08,0,0,1,2,1.32,1.36,1.36,0,0,1-.06,2c-.85,1-1.72,1.91-2.58,2.85a59.7,59.7,0,0,0-5.89,7.47l-.1.17,1-.26a6,6,0,0,1,2.19-.2,3.69,3.69,0,0,1,3.19,3.19,6,6,0,0,1-.68,3.21,9.18,9.18,0,0,1-1.7,2.4c-.28.31-.55.63-.84,1a1.51,1.51,0,0,0,1.19.23,3.81,3.81,0,0,0,1.47-.85c.19-.16.37-.33.55-.5a.77.77,0,0,1,.8-.19,1.49,1.49,0,0,1,1,.77.77.77,0,0,1-.13,1,5,5,0,0,1-3.27,1.68,2.9,2.9,0,0,1-1.33-.25l-1.37-.56a.51.51,0,0,0-.58.07c-.22.17-.45.33-.66.5a6.52,6.52,0,0,1-3.21,1.41,5.4,5.4,0,0,1-4.81-1.69,3,3,0,0,1-.73-1.89Zm3.26.67c0,.74.33,1,.95.88a2.9,2.9,0,0,0,.93-.38,9.52,9.52,0,0,0,1.22-1,15.39,15.39,0,0,0,3.58-5.52,4.14,4.14,0,0,0,.33-1.55.83.83,0,0,0-1-.89,1.36,1.36,0,0,0-.29.06,5.47,5.47,0,0,0-3.11,2.32,23,23,0,0,0-2.08,4.15A7.31,7.31,0,0,0,353.76,485.39Zm-30-7.62-.11-.06-.2-.07a4.43,4.43,0,0,0-2.17,0,4.77,4.77,0,0,0-1.51.53,1,1,0,0,0,.35,1.85,2.11,2.11,0,0,0,1.62-.32,8.94,8.94,0,0,0,1.88-1.7C323.7,477.91,323.73,477.85,323.79,477.77Z" transform="translate(-217.77 -337.25)"/><path class="cls-8" d="M304.52,454.76a6.25,6.25,0,0,0,.84.17c1.29.12,2.59.22,3.88.32s2.35.18,3.52.24c1.75.11,3.51.21,5.26.27,1,0,2.09,0,3.14,0a14.14,14.14,0,0,0,3.71-.52,2.32,2.32,0,0,0,1.17-.72,1.16,1.16,0,0,0,.26-.91c0-.22-.05-.44-.06-.65a2,2,0,0,0-.27-1c0-.07-.06-.15-.12-.29a2,2,0,0,1,.39.1,4.55,4.55,0,0,1,2.22,2.41,2.71,2.71,0,0,1-1.13,3.35,6.71,6.71,0,0,1-2.48,1,24.39,24.39,0,0,1-6.15.37c-1.25-.06-2.51-.14-3.76-.24s-2.7-.27-4-.42-2.65-.32-4-.5c-.83-.11-1.65-.27-2.47-.4l-.24,0c-.66-.07-.66-.07-.94.54a35.19,35.19,0,0,0-2.09,6.16,55.9,55.9,0,0,0-1.12,5.71,25.09,25.09,0,0,0-.31,4.82,7,7,0,0,0,.35,2.07,1.46,1.46,0,0,0,.83,1,1.21,1.21,0,0,0,1-.15,4.93,4.93,0,0,0,1.46-1.38,10.52,10.52,0,0,0,1.9-4.59c.06-.34.11-.4.46-.42a2.79,2.79,0,0,1,1.47.33c.24.13.31.27.25.49a19.83,19.83,0,0,1-1.63,4.09,8.6,8.6,0,0,1-2.12,2.57,5.15,5.15,0,0,1-3.72,1,4.65,4.65,0,0,1-1.6-.36,3.17,3.17,0,0,1-1.52-1.35c-.32-.53-.57-1.1-.85-1.66l-.38.4a10.55,10.55,0,0,1-5.55,3.19,9.26,9.26,0,0,1-4,0,4.76,4.76,0,0,1-2.82-1.87l-.18-.26c-.39.38-.75.78-1.15,1.13a9.88,9.88,0,0,1-6.08,2.53,6.72,6.72,0,0,1-2.71-.29,5,5,0,0,1-3-2.94,2.44,2.44,0,0,0-.1-.24l-.82.25a2.74,2.74,0,0,1-1.93-.17c-.52-.21-1-.47-1.57-.72,0,.13-.1.28-.15.44-.42,1.54-.85,3.08-1.26,4.62a1.88,1.88,0,0,1-1,1.25,5.29,5.29,0,0,1-4.4.25,1.06,1.06,0,0,1-.76-1.33c.11-.86.23-1.71.31-2.57a12.54,12.54,0,0,0-.07-3.06l-.33-2.12a.19.19,0,0,0-.07-.12l-.24,1.48c-.44,2.66-.79,5.33-1.39,8-.08.34-.2.67-.29,1a1,1,0,0,1-.92.75,6.18,6.18,0,0,1-2-.09,7.61,7.61,0,0,1-2.57-1,2.28,2.28,0,0,1-1-1.14,23.92,23.92,0,0,1-1-3.42c-.5-2.06-.9-4.14-1.22-6.24,0-.21-.05-.42-.08-.63a.73.73,0,0,1,.27-.64,3,3,0,0,1,1.3-.66,4.56,4.56,0,0,1,3.07,0,1,1,0,0,1,.74.93c0,.15,0,.31,0,.47,0,.9,0,1.8,0,2.7s.16,2,.29,2.94a24.09,24.09,0,0,0,.82,3.95,2,2,0,0,0,.25.53c.23.37.55.37.75,0a2.93,2.93,0,0,0,.3-.81c.42-2,.8-4,1-6.06a17.76,17.76,0,0,0,.14-3.34,4.18,4.18,0,0,1,0-.79,1,1,0,0,1,.66-.87,3.81,3.81,0,0,1,2.8-.06,2.34,2.34,0,0,1,.24.09,1.39,1.39,0,0,1,1,1.35c.05,1.29.12,2.58.22,3.87s.25,2.55.39,3.83a1.31,1.31,0,0,0,.1.32l.06,0a1.86,1.86,0,0,0,.18-.34c.25-.85.53-1.69.71-2.55a27.9,27.9,0,0,0,.65-5.61,12.44,12.44,0,0,0-.33-3,.77.77,0,0,1,.47-1,4.1,4.1,0,0,1,1.46-.38,5.7,5.7,0,0,1,1.84.13,1.33,1.33,0,0,1,.28.1.39.39,0,0,1,.29.45,27.47,27.47,0,0,0-.1,3.85,15.54,15.54,0,0,0,.35,2.8,4,4,0,0,0,.15.45.8.8,0,0,0,1.17.42,1.32,1.32,0,0,0,.79-1.15,9.77,9.77,0,0,1,.61-3.12,10.85,10.85,0,0,1,2.54-3.8,8,8,0,0,1,4.74-2.24,4.12,4.12,0,0,1,1.64,0,2.47,2.47,0,0,1,1.86,2,4.67,4.67,0,0,1-.39,2.94,5.74,5.74,0,0,1-2.44,2.78,3.82,3.82,0,0,1-2.58.45c-.38-.07-.76-.09-1.15-.13a.28.28,0,0,0-.33.21,4.72,4.72,0,0,0-.26,3.1,2.55,2.55,0,0,0,2.85,1.83,6.14,6.14,0,0,0,2.83-1.25,10.26,10.26,0,0,0,2.5-2.59.61.61,0,0,0,.1-.37,9.76,9.76,0,0,1,3.42-8.08,8,8,0,0,1,5-2.08,4.91,4.91,0,0,1,1.53.07,2.52,2.52,0,0,1,1.91,2.08,4.84,4.84,0,0,1-.65,3.16,5.5,5.5,0,0,1-3.54,2.81,3.79,3.79,0,0,1-1.64-.08l-1.15-.2a.26.26,0,0,0-.31.15,4.53,4.53,0,0,0-.41,3.4,2.44,2.44,0,0,0,2.36,1.73,5,5,0,0,0,2.52-.66,10.67,10.67,0,0,0,4.23-4.09.56.56,0,0,0,.05-.29,26,26,0,0,1,.13-4,70,70,0,0,1,2.21-11.11c.08-.3.13-.61.21-.91a.23.23,0,0,0-.19-.32,11.88,11.88,0,0,0-1.32-.27c-1.71-.18-3.43-.37-5.15-.5a17.26,17.26,0,0,0-7.38.8,12.76,12.76,0,0,0-1.33.54c-.43.21-.84.48-1.25.73s-.39.18-.59-.06A1.14,1.14,0,0,1,281,456a4.82,4.82,0,0,1,2.05-1.13,17.83,17.83,0,0,1,3.69-.71,33.74,33.74,0,0,1,4.82-.11c1,0,1.91.17,2.86.27,1.2.12,2.39.27,3.59.36.71.05.84-.08,1.1-.74.14-.34.25-.7.4-1a2.62,2.62,0,0,1,1.57-1.63,4.48,4.48,0,0,1,3.89.53,1.22,1.22,0,0,1,.28,1.89c-.26.33-.5.68-.75,1Zm-28.4,17.78a2.14,2.14,0,0,0,1-.35,3.94,3.94,0,0,0,1.64-2.1,2.62,2.62,0,0,0,.14-1.36.87.87,0,0,0-1.32-.64,2.19,2.19,0,0,0-.44.31,7.25,7.25,0,0,0-2,3.09,1.69,1.69,0,0,0-.07.45.33.33,0,0,0,.24.37Zm12.81-1.25a5.34,5.34,0,0,0,.88-.3,3.86,3.86,0,0,0,1.86-2.15,2.31,2.31,0,0,0,.16-1.3.86.86,0,0,0-1.18-.64,2.81,2.81,0,0,0-.66.41,7.33,7.33,0,0,0-2,2.66,2.55,2.55,0,0,0-.18.53.36.36,0,0,0,.18.45C288.28,471.08,288.6,471.18,288.93,471.29Z" transform="translate(-217.77 -337.25)"/></svg>