<svg id="Capa_1" data-name="Capa 1" xmlns="http://www.w3.org/2000/svg" viewBox="0 0 225.33 91.25"><defs><style>.cls-1,.cls-3{fill:#fff;}.cls-2,.cls-6{fill:#00acd8;}.cls-3,.cls-4,.cls-6,.cls-7,.cls-8,.cls-9{fill-rule:evenodd;}.cls-4{fill:#eaf6fa;}.cls-5{fill:#c1e5f2;}.cls-7{stroke:#00acd8;stroke-width:11px;}.cls-7,.cls-8{stroke-miterlimit:10;}.cls-8{stroke:#fff;stroke-width:9px;}.cls-9{fill:#fb5373;}</style></defs><path class="cls-1" d="M269.67,93.73a5.91,5.91,0,0,1,0-11.79H289a5.91,5.91,0,0,1,0,11.79Z" transform="translate(-83.41 -66.31)"/><path class="cls-2" d="M289,83.68A4.18,4.18,0,0,1,289,92H269.67a4.18,4.18,0,0,1,0-8.31H289m0-3.48H269.67a7.65,7.65,0,0,0,0,15.27H289a7.65,7.65,0,0,0,0-15.27Z" transform="translate(-83.41 -66.31)"/><path class="cls-1" d="M278.81,155.82a28.19,28.19,0,0,1-10.68-54.27V89.82h21.95v12a28.19,28.19,0,0,1-11.28,54Z" transform="translate(-83.41 -66.31)"/><path class="cls-2" d="M288.34,91.56l0,11.4a26.45,26.45,0,1,1-18.49-.22V91.56h18.47m3.47-3.48H266.39V100.4a29.94,29.94,0,1,0,25.44.29V88.08Z" transform="translate(-83.41 -66.31)"/><path class="cls-3" d="M274,84.94a4.59,4.59,0,1,1,4.59-4.59A4.6,4.6,0,0,1,274,84.94Z" transform="translate(-83.41 -66.31)"/><path class="cls-2" d="M274,77.5a2.85,2.85,0,1,1-2.86,2.85A2.85,2.85,0,0,1,274,77.5M274,74a6.33,6.33,0,1,0,6.33,6.33A6.34,6.34,0,0,0,274,74Z" transform="translate(-83.41 -66.31)"/><path class="cls-3" d="M281,82.47a5.22,5.22,0,1,1,5.22-5.22A5.22,5.22,0,0,1,281,82.47Z" transform="translate(-83.41 -66.31)"/><path class="cls-2" d="M281,73.77a3.48,3.48,0,1,1-3.48,3.48A3.48,3.48,0,0,1,281,73.77m0-3.48a7,7,0,1,0,7,7,7,7,0,0,0-7-7Z" transform="translate(-83.41 -66.31)"/><path class="cls-3" d="M280.4,74.41a3.18,3.18,0,1,1,3.17-3.18A3.19,3.19,0,0,1,280.4,74.41Z" transform="translate(-83.41 -66.31)"/><path class="cls-2" d="M280.4,69.79A1.44,1.44,0,1,1,279,71.23a1.44,1.44,0,0,1,1.44-1.44m0-3.48a4.92,4.92,0,1,0,4.91,4.92,4.93,4.93,0,0,0-4.91-4.92Z" transform="translate(-83.41 -66.31)"/><path class="cls-1" d="M269.67,93.38a5.56,5.56,0,0,1,0-11.09H289a5.56,5.56,0,0,1,0,11.09Z" transform="translate(-83.41 -66.31)"/><path class="cls-1" d="M289,83.68A4.18,4.18,0,0,1,289,92H269.67a4.18,4.18,0,0,1,0-8.31H289m0-2.79H269.67a7,7,0,0,0,0,13.88H289a7,7,0,0,0,0-13.88Z" transform="translate(-83.41 -66.31)"/><path class="cls-1" d="M278.81,155.47a27.84,27.84,0,0,1-10.33-53.69V90.17h21.25l0,11.86a27.84,27.84,0,0,1-10.94,53.44Z" transform="translate(-83.41 -66.31)"/><path class="cls-1" d="M288.34,91.56l0,11.4a26.45,26.45,0,1,1-18.49-.22V91.56h18.47m2.78-2.78h-24v12.07a29.24,29.24,0,1,0,24.05.28l0-9.58V88.78Z" transform="translate(-83.41 -66.31)"/><path class="cls-3" d="M274,84.59a4.25,4.25,0,1,1,4.24-4.24A4.25,4.25,0,0,1,274,84.59Z" transform="translate(-83.41 -66.31)"/><path class="cls-1" d="M274,77.5a2.85,2.85,0,1,1-2.86,2.85A2.85,2.85,0,0,1,274,77.5m0-2.79a5.64,5.64,0,1,0,5.63,5.64A5.65,5.65,0,0,0,274,74.71Z" transform="translate(-83.41 -66.31)"/><path class="cls-3" d="M281,82.12a4.87,4.87,0,1,1,4.87-4.87A4.87,4.87,0,0,1,281,82.12Z" transform="translate(-83.41 -66.31)"/><path class="cls-1" d="M281,73.77a3.48,3.48,0,1,1-3.48,3.48A3.48,3.48,0,0,1,281,73.77M281,71a6.27,6.27,0,1,0,6.26,6.27A6.27,6.27,0,0,0,281,71Z" transform="translate(-83.41 -66.31)"/><path class="cls-3" d="M280.4,74.06a2.83,2.83,0,1,1,2.83-2.83A2.83,2.83,0,0,1,280.4,74.06Z" transform="translate(-83.41 -66.31)"/><path class="cls-1" d="M280.4,69.79A1.44,1.44,0,1,1,279,71.23a1.44,1.44,0,0,1,1.44-1.44m0-2.78a4.22,4.22,0,1,0,4.22,4.22A4.22,4.22,0,0,0,280.4,67Z" transform="translate(-83.41 -66.31)"/><path class="cls-2" d="M292.72,88A4,4,0,0,1,289,92.17H269.67A4,4,0,0,1,265.91,88h0a4,4,0,0,1,3.76-4.15H289A4,4,0,0,1,292.72,88Z" transform="translate(-83.41 -66.31)"/><path class="cls-2" d="M288.36,103.15a26.44,26.44,0,1,1-18.49-.23V91.74h18.47Z" transform="translate(-83.41 -66.31)"/><path class="cls-1" d="M271.49,107.4a1.39,1.39,0,0,1-.32,1.92,16.24,16.24,0,0,0-3.77,2,21.64,21.64,0,0,0-3.34,3.48,1.38,1.38,0,0,1-1.94-.19h0c-.45-.59-.05-1.21.32-1.93a13.86,13.86,0,0,1,3.17-3.36,16.26,16.26,0,0,1,3.93-2.09c.85-.3,1.5-.39,1.95.2Z" transform="translate(-83.41 -66.31)"/><path class="cls-4" d="M274.07,111.94c-1,3.75-.53,5.41,2.42,7.22s5.92,3,8.84,4.67a34.48,34.48,0,0,1,5.85,3.67c3.29,2.81,2.78,7-1.21,8.75a29,29,0,0,1-8.28,1.9c-4.37.46-8.78.22-12.79-1.81a19.63,19.63,0,0,1-4.82-3.66c-1.26-1.25-1.89-3.23-.8-4.68a6.31,6.31,0,0,1,4-2c2-.27,2.15.08,3.67.18-2.56-2.67-5-5.2-3.16-9C269,114.68,271.12,113.1,274.07,111.94Z" transform="translate(-83.41 -66.31)"/><path class="cls-4" d="M292.07,123.79c-4.27-1.68-8.19-3.18-12.07-4.79a5.73,5.73,0,0,1-2.66-1.79,2.69,2.69,0,0,1-.46-2.16,2.61,2.61,0,0,1,1.93-1.14,12.58,12.58,0,0,1,1.62,0c-.3-.47-.54-.78-.69-1.09a3.91,3.91,0,0,1-.37-3.48c.52-.94,2.29-1.44,3.46-1.37a5.47,5.47,0,0,1,3.34,1.71C289.85,113.56,291.28,118.46,292.07,123.79Z" transform="translate(-83.41 -66.31)"/><polygon class="cls-1" points="179.88 68 178.38 68 183.86 78.93 185.51 78.93 185.87 80.25 187.93 79.84 188.57 81.35 190.58 80.75 189.3 73.12 186.51 74.36 185.92 72.04 183.08 72.85 182.67 70.7 180.52 70.84 180.75 69.1 179.31 69.05 179.88 68"/><polygon class="cls-5" points="189.3 73.12 190.58 75.04 193.38 73.62 195.73 75.31 197.75 73.39 200.36 75.09 201.96 73.12 204.56 74.22 205.71 72.04 208.4 72.67 208.4 70.88 211.1 70.88 211.1 69.42 212.06 69.42 212.06 68 212.84 68 212.56 69.56 208.45 77.69 207.67 77.69 207.4 78.88 206.21 78.88 205.57 80.11 203.6 80.11 202.83 81.35 201.02 80.75 199.63 82.22 197.57 81.08 195.73 82.72 194.01 81.17 192.04 82.26 190.58 80.75 189.3 73.12"/><polygon class="cls-1" points="190.83 75.18 193.3 73.94 193.87 81.12 192.13 82.08 190.83 75.18"/><polygon class="cls-1" points="195.76 75.71 197.81 73.86 197.46 80.94 195.73 82.49 195.76 75.71"/><polygon class="cls-1" points="200.43 75.52 202.03 73.62 200.95 80.53 199.63 81.97 200.43 75.52"/><polygon class="cls-1" points="204.66 74.49 205.78 72.21 203.65 79.86 202.87 81.08 204.66 74.49"/><path class="cls-3" d="M285,98.79a4.11,4.11,0,1,1-4.1-4.1A4.11,4.11,0,0,1,285,98.79Z" transform="translate(-83.41 -66.31)"/><path class="cls-3" d="M278.18,104.36a2.27,2.27,0,1,1-2.27-2.27A2.27,2.27,0,0,1,278.18,104.36Z" transform="translate(-83.41 -66.31)"/><path class="cls-6" d="M276.88,80.53A2.86,2.86,0,1,1,274,77.68,2.86,2.86,0,0,1,276.88,80.53Z" transform="translate(-83.41 -66.31)"/><path class="cls-6" d="M284.48,77.43A3.48,3.48,0,1,1,281,74,3.48,3.48,0,0,1,284.48,77.43Z" transform="translate(-83.41 -66.31)"/><path class="cls-6" d="M281.83,71.41A1.44,1.44,0,1,1,280.4,70,1.44,1.44,0,0,1,281.83,71.41Z" transform="translate(-83.41 -66.31)"/><path class="cls-7" d="M88.91,114c.08-.45.14-.91.25-1.36a10.8,10.8,0,0,1,3-5.18,17.66,17.66,0,0,1,6.16-3.91,24.6,24.6,0,0,1,4.75-1.38,18.14,18.14,0,0,1,4-.2,17,17,0,0,1,3.34.45,8.54,8.54,0,0,1,4.22,2.55,2.44,2.44,0,0,1,.66,1.77,3.83,3.83,0,0,1-.83,2.46,3.63,3.63,0,0,1-.81.64.82.82,0,0,1-1-.09,2.16,2.16,0,0,1-.38-.36,8.93,8.93,0,0,0-4.87-3.17,12.23,12.23,0,0,0-11.11,2.27,7.31,7.31,0,0,0-2.76,4.31,6,6,0,0,0,.48,3.62,7.2,7.2,0,0,0,3.79,3.77,25,25,0,0,0,4.58,1.56,37.77,37.77,0,0,1,6.12,2,11.32,11.32,0,0,1,3.85,2.66,8.61,8.61,0,0,1,2.24,5,11.29,11.29,0,0,1-1.19,6.07,14.35,14.35,0,0,1-4.7,5.69,13.66,13.66,0,0,1-5.18,2.1,13.23,13.23,0,0,1-4.07.21A8.77,8.77,0,0,1,95.18,144a6.13,6.13,0,0,1-2-2.56,1.41,1.41,0,0,1-.12-.5.58.58,0,0,1,.57-.68,3,3,0,0,1,1,.1,23.77,23.77,0,0,0,4.49.88,11.94,11.94,0,0,0,4-.38,11.75,11.75,0,0,0,4.75-2.3A8.66,8.66,0,0,0,111,134a6.33,6.33,0,0,0-1.88-6.4,9.08,9.08,0,0,0-4.16-2.23c-1.31-.34-2.65-.61-4-.88A30.69,30.69,0,0,1,94,122.4a8.44,8.44,0,0,1-4.21-4.2,8.93,8.93,0,0,1-.88-3.12.54.54,0,0,0,0-.1Z" transform="translate(-83.41 -66.31)"/><path class="cls-7" d="M216.13,134.05c-.66.3-1.3.66-2,.9a3.84,3.84,0,0,1-3.84-.71,3.49,3.49,0,0,1-1.23-2.33c-.09-.73-.09-1.48-.13-2.21a2.76,2.76,0,0,1,0-.29l-.67.51c-1.06.75-2.11,1.52-3.17,2.26a3.13,3.13,0,0,1-1.42.62,5.22,5.22,0,0,1-.88,0l.08,0a155.44,155.44,0,0,0,14.68,8.91,43.76,43.76,0,0,0,7.12,3,18.27,18.27,0,0,0,5.82.93,7.61,7.61,0,0,0,5.53-2.35c.15-.16.31-.31.47-.45a1.85,1.85,0,0,1,.34-.23c.15-.08.34-.18.46,0a.5.5,0,0,1,0,.43,16.27,16.27,0,0,1-1,1.58,10,10,0,0,1-4.23,3.3,10.28,10.28,0,0,1-2.84.6,15.8,15.8,0,0,1-3.15-.06,18.89,18.89,0,0,1-3.55-.84,45.37,45.37,0,0,1-8.59-3.94,129.45,129.45,0,0,1-14.84-9.91c-1.15-.89-2.21-1.91-3.31-2.87-.65-.57-1.31-1.15-2-1.7-.41-.34-.44-.32-.81,0s-.46.46-.68.7a5.58,5.58,0,0,1-2.93,1.68,6.54,6.54,0,0,1-3.59-.06,3.18,3.18,0,0,1-2.37-3.36,3.78,3.78,0,0,1,3.23-3.73,3.34,3.34,0,0,1,1.47.15q1,.24,1.92.51a.7.7,0,0,0,.85-.33,14.32,14.32,0,0,0,1.35-2.68c1-2.48,1.74-5,2.52-7.57s1.49-4.86,2.48-7.21a22.46,22.46,0,0,1,2.68-4.81,8.94,8.94,0,0,1,5.33-3.48,9.22,9.22,0,0,1,6.87,1,6.89,6.89,0,0,1,2,1.82,4.46,4.46,0,0,1,.59,4.3,9.29,9.29,0,0,1-3.61,4.75,12.44,12.44,0,0,1-5.42,2.16c-.65.1-1.31.16-2,.27a1.18,1.18,0,0,1-1.39-1,1.56,1.56,0,0,1,1.24-1.92l2.07-.29A5.9,5.9,0,0,0,211,105.6a8.31,8.31,0,0,0,.4-2.57,2.92,2.92,0,0,0-.74-2,2.53,2.53,0,0,0-2.64-.66,6.27,6.27,0,0,0-3.56,2.42,14.76,14.76,0,0,0-2.33,4.55c-.83,2.55-1.58,5.13-2.36,7.69-.7,2.27-1.36,4.55-2.11,6.8a17.49,17.49,0,0,1-1.15,2.44c-.36.7-.77,1.37-1.13,2.08s-.39.69.25,1.24a25,25,0,0,0,2.18,1.66c1.27.89,2.56,1.75,3.84,2.62a.1.1,0,0,0,.11,0l-.19-.17a2.61,2.61,0,0,1-.78-2.66,13.21,13.21,0,0,1,1.9-4.33,16,16,0,0,1,3.79-4.07,5.85,5.85,0,0,1,4.22-1.16,10.83,10.83,0,0,1,4.3,1.32,3.45,3.45,0,0,1,1.5,1.5,1.23,1.23,0,0,1-.59,1.85,2.7,2.7,0,0,1-2,.17c-.4-.11-.46-.3-.3-.69a4.06,4.06,0,0,0,.25-.84.59.59,0,0,0-.4-.63,1.75,1.75,0,0,0-1.15-.07,5.91,5.91,0,0,0-1.79.81,15.8,15.8,0,0,0-5.91,6.56,5.72,5.72,0,0,0-.37,1.15.5.5,0,0,0,.12.42.54.54,0,0,0,.46,0,5.7,5.7,0,0,0,.95-.75c.95-1,1.88-2,2.8-3,.66-.71,1.29-1.44,2-2.14a2.27,2.27,0,0,1,1.63-.76,4.75,4.75,0,0,1,2.13.45,3.31,3.31,0,0,1,.69.43.89.89,0,0,1,.3,1,3.37,3.37,0,0,1-.28.61,21.22,21.22,0,0,0-2.2,4.88,2.13,2.13,0,0,0-.07,1.12c.09.34.23.44.57.33a3.65,3.65,0,0,0,.54-.23,8.58,8.58,0,0,0,2.84-2.45l.1-.17c.6-1.29,1.17-2.59,1.79-3.86a53.82,53.82,0,0,1,8.64-12.69c.72-.78,1.5-1.49,2.23-2.26a1.21,1.21,0,0,1,1.37-.32,4,4,0,0,1,2,1.32,1.34,1.34,0,0,1,0,2c-.85,1-1.72,1.91-2.59,2.86a60.56,60.56,0,0,0-5.88,7.47,1.53,1.53,0,0,0-.1.17l1-.26a5.78,5.78,0,0,1,2.19-.2,3.67,3.67,0,0,1,3.18,3.18,6,6,0,0,1-.67,3.22,9.18,9.18,0,0,1-1.7,2.4l-.85,1a1.54,1.54,0,0,0,1.2.23,3.71,3.71,0,0,0,1.47-.86c.19-.15.37-.32.55-.49a.75.75,0,0,1,.8-.19,1.5,1.5,0,0,1,.95.77.77.77,0,0,1-.12,1,5.09,5.09,0,0,1-3.27,1.68,2.88,2.88,0,0,1-1.33-.26c-.46-.17-.92-.36-1.37-.56a.55.55,0,0,0-.59.08l-.65.5a6.52,6.52,0,0,1-3.21,1.41,5.4,5.4,0,0,1-4.81-1.69,3,3,0,0,1-.73-1.89S216.13,134,216.13,134.05Zm3.27.67c0,.74.32,1,.94.88a2.88,2.88,0,0,0,.94-.39,8.66,8.66,0,0,0,1.22-1,15.31,15.31,0,0,0,3.57-5.53,4.06,4.06,0,0,0,.34-1.54.84.84,0,0,0-1-.9l-.3.07a5.45,5.45,0,0,0-3.1,2.32,22.68,22.68,0,0,0-2.08,4.15A7.31,7.31,0,0,0,219.4,134.72Zm-30-7.62-.1-.06-.2-.07a4.43,4.43,0,0,0-2.17,0,5,5,0,0,0-1.51.52,1,1,0,0,0-.48,1.09,1,1,0,0,0,.83.76,2.07,2.07,0,0,0,1.62-.31,9.49,9.49,0,0,0,1.88-1.7Z" transform="translate(-83.41 -66.31)"/><path class="cls-7" d="M170.16,104.09a6.25,6.25,0,0,0,.84.17c1.29.12,2.59.22,3.88.32s2.34.17,3.52.24c1.75.1,3.5.21,5.26.27,1,0,2.09,0,3.13,0a14.15,14.15,0,0,0,3.72-.52,2.25,2.25,0,0,0,1.16-.72,1.12,1.12,0,0,0,.26-.91,4.87,4.87,0,0,1-.05-.65,2,2,0,0,0-.27-1,3.15,3.15,0,0,1-.13-.29,1.92,1.92,0,0,1,.4.1,4.59,4.59,0,0,1,2.22,2.41,2.7,2.7,0,0,1-1.14,3.35,6.6,6.6,0,0,1-2.47,1,23.93,23.93,0,0,1-6.15.36c-1.26,0-2.51-.13-3.76-.24s-2.7-.26-4.05-.41-2.64-.32-4-.5c-.83-.11-1.65-.27-2.47-.4a2,2,0,0,0-.24,0c-.66-.07-.66-.07-.94.54a34.39,34.39,0,0,0-2.09,6.16,55.9,55.9,0,0,0-1.12,5.71,25.93,25.93,0,0,0-.32,4.82,7.32,7.32,0,0,0,.36,2.07,1.43,1.43,0,0,0,.83,1,1.19,1.19,0,0,0,1-.15,4.93,4.93,0,0,0,1.46-1.38,10.47,10.47,0,0,0,1.91-4.59c.05-.34.11-.4.46-.42a2.79,2.79,0,0,1,1.47.33c.24.13.31.27.24.49a19.47,19.47,0,0,1-1.62,4.09,8.44,8.44,0,0,1-2.12,2.56,5.12,5.12,0,0,1-3.72,1,4.65,4.65,0,0,1-1.6-.36,3.25,3.25,0,0,1-1.53-1.35c-.31-.53-.56-1.1-.84-1.66l-.38.4a10.55,10.55,0,0,1-5.55,3.19,9.42,9.42,0,0,1-4,0,4.82,4.82,0,0,1-2.82-1.88l-.18-.25c-.39.38-.75.78-1.15,1.13a9.88,9.88,0,0,1-6.08,2.53,6.7,6.7,0,0,1-2.71-.29,5,5,0,0,1-3-2.94,2.6,2.6,0,0,1-.1-.25l-.83.26a2.74,2.74,0,0,1-1.93-.17c-.52-.21-1-.47-1.56-.72a4.31,4.31,0,0,0-.15.43c-.42,1.55-.85,3.09-1.27,4.63a1.83,1.83,0,0,1-1,1.24,5.33,5.33,0,0,1-4.4.26,1.08,1.08,0,0,1-.77-1.33c.11-.86.24-1.71.32-2.57a12.54,12.54,0,0,0-.08-3.06q-.15-1.06-.33-2.13s0-.07-.07-.11c-.07.49-.15,1-.23,1.48-.44,2.66-.79,5.33-1.39,8-.08.34-.2.67-.29,1a1,1,0,0,1-.92.74,6.16,6.16,0,0,1-2-.08,7.35,7.35,0,0,1-2.57-1,2.28,2.28,0,0,1-1-1.13,25.24,25.24,0,0,1-1-3.42c-.5-2.06-.9-4.14-1.22-6.24,0-.21,0-.42-.08-.63a.74.74,0,0,1,.26-.64,3.07,3.07,0,0,1,1.31-.66,4.62,4.62,0,0,1,3.07,0,1,1,0,0,1,.73.93c0,.16,0,.32,0,.48,0,.9,0,1.8,0,2.7s.16,2,.28,2.94a25.21,25.21,0,0,0,.83,3.95,2.53,2.53,0,0,0,.24.53c.24.37.56.37.76,0a2.93,2.93,0,0,0,.3-.81c.42-2,.8-4,1-6.06a19.78,19.78,0,0,0,.14-3.35,3.4,3.4,0,0,1,0-.78,1.05,1.05,0,0,1,.65-.88,3.89,3.89,0,0,1,2.81,0,1.17,1.17,0,0,1,.24.09,1.38,1.38,0,0,1,1,1.35c0,1.29.12,2.58.22,3.87s.25,2.55.38,3.83c0,.11.07.21.1.32l.06,0a1.7,1.7,0,0,0,.19-.35c.24-.84.52-1.68.71-2.54a28.64,28.64,0,0,0,.65-5.61,13.54,13.54,0,0,0-.33-3,.77.77,0,0,1,.47-1,4.1,4.1,0,0,1,1.46-.38,6,6,0,0,1,1.84.12l.28.11a.37.37,0,0,1,.28.44,29.12,29.12,0,0,0-.09,3.85,14.79,14.79,0,0,0,.35,2.81,4,4,0,0,0,.15.45.8.8,0,0,0,1.17.42,1.32,1.32,0,0,0,.79-1.15,9.77,9.77,0,0,1,.61-3.12,11,11,0,0,1,2.53-3.8,8.08,8.08,0,0,1,4.75-2.25,4.52,4.52,0,0,1,1.64,0,2.48,2.48,0,0,1,1.86,2,4.67,4.67,0,0,1-.39,2.94,5.82,5.82,0,0,1-2.45,2.78,3.78,3.78,0,0,1-2.57.44c-.38-.06-.77-.08-1.15-.12a.29.29,0,0,0-.34.2,4.82,4.82,0,0,0-.25,3.11,2.54,2.54,0,0,0,2.85,1.82,6,6,0,0,0,2.83-1.24,10.05,10.05,0,0,0,2.49-2.59.63.63,0,0,0,.11-.38,9.74,9.74,0,0,1,3.42-8.07,7.86,7.86,0,0,1,5-2.08,5,5,0,0,1,1.54.07,2.51,2.51,0,0,1,1.9,2.08,4.84,4.84,0,0,1-.64,3.16,5.5,5.5,0,0,1-3.54,2.81,3.79,3.79,0,0,1-1.64-.08l-1.15-.2a.25.25,0,0,0-.31.15,4.44,4.44,0,0,0-.41,3.4,2.44,2.44,0,0,0,2.36,1.73,5,5,0,0,0,2.52-.66,10.58,10.58,0,0,0,4.22-4.09.48.48,0,0,0,.06-.29,24.81,24.81,0,0,1,.13-4,71.13,71.13,0,0,1,2.2-11.11c.09-.3.14-.61.22-.91a.23.23,0,0,0-.19-.32,12.36,12.36,0,0,0-1.32-.27c-1.71-.18-3.43-.37-5.15-.5a17.11,17.11,0,0,0-7.38.8,12.76,12.76,0,0,0-1.33.54c-.43.21-.84.48-1.25.73s-.39.18-.6-.06a1.15,1.15,0,0,1,.05-1.81,4.8,4.8,0,0,1,2.06-1.13,17.73,17.73,0,0,1,3.68-.71,35.42,35.42,0,0,1,4.83-.12c1,0,1.91.18,2.86.28,1.2.12,2.39.27,3.59.36.71.05.84-.08,1.1-.74.13-.34.25-.7.4-1a2.6,2.6,0,0,1,1.56-1.63,4.5,4.5,0,0,1,3.9.53,1.22,1.22,0,0,1,.28,1.88c-.26.34-.5.69-.75,1Zm-28.4,17.78a2.14,2.14,0,0,0,1-.35,4,4,0,0,0,1.64-2.1,2.62,2.62,0,0,0,.14-1.36.87.87,0,0,0-1.32-.64,1.9,1.9,0,0,0-.44.3,7.34,7.34,0,0,0-2,3.1,1.7,1.7,0,0,0-.08.45.35.35,0,0,0,.25.37Zm12.8-1.25a5.46,5.46,0,0,0,.89-.3,3.86,3.86,0,0,0,1.86-2.15,2.32,2.32,0,0,0,.16-1.3.85.85,0,0,0-1.18-.64,2.87,2.87,0,0,0-.67.41,7.44,7.44,0,0,0-2,2.66,2.52,2.52,0,0,0-.17.53.35.35,0,0,0,.18.45C153.92,120.41,154.24,120.51,154.56,120.62Z" transform="translate(-83.41 -66.31)"/><path class="cls-8" d="M88.91,114c.08-.45.14-.91.25-1.36a10.8,10.8,0,0,1,3-5.18,17.66,17.66,0,0,1,6.16-3.91,24.6,24.6,0,0,1,4.75-1.38,18.14,18.14,0,0,1,4-.2,17,17,0,0,1,3.34.45,8.54,8.54,0,0,1,4.22,2.55,2.4,2.4,0,0,1,.66,1.77,3.83,3.83,0,0,1-.83,2.46,3.63,3.63,0,0,1-.81.64.82.82,0,0,1-1-.09,2.16,2.16,0,0,1-.38-.36,8.93,8.93,0,0,0-4.87-3.17,12.23,12.23,0,0,0-11.11,2.27,7.31,7.31,0,0,0-2.76,4.31,6,6,0,0,0,.48,3.62,7.2,7.2,0,0,0,3.79,3.77,25,25,0,0,0,4.58,1.56,37.77,37.77,0,0,1,6.12,2,11.32,11.32,0,0,1,3.85,2.66,8.61,8.61,0,0,1,2.24,5,11.29,11.29,0,0,1-1.19,6.07,14.35,14.35,0,0,1-4.7,5.69,13.66,13.66,0,0,1-5.18,2.1,13.23,13.23,0,0,1-4.07.21A8.77,8.77,0,0,1,95.18,144a6.13,6.13,0,0,1-2-2.56,1.41,1.41,0,0,1-.12-.5.58.58,0,0,1,.57-.68,3,3,0,0,1,1,.1,23.77,23.77,0,0,0,4.49.88,11.94,11.94,0,0,0,4-.38,11.75,11.75,0,0,0,4.75-2.3A8.66,8.66,0,0,0,111,134a6.33,6.33,0,0,0-1.88-6.4,9.08,9.08,0,0,0-4.16-2.23c-1.31-.34-2.65-.61-4-.88A30.69,30.69,0,0,1,94,122.4a8.44,8.44,0,0,1-4.21-4.2,8.93,8.93,0,0,1-.88-3.12.54.54,0,0,0,0-.1Z" transform="translate(-83.41 -66.31)"/><path class="cls-8" d="M216.13,134.05c-.66.3-1.3.66-2,.9a3.84,3.84,0,0,1-3.84-.71,3.49,3.49,0,0,1-1.23-2.33c-.09-.73-.09-1.48-.13-2.21a2.76,2.76,0,0,1,0-.29l-.67.51c-1.06.75-2.11,1.52-3.17,2.26a3.13,3.13,0,0,1-1.42.62,5.22,5.22,0,0,1-.88,0l.08,0a155.44,155.44,0,0,0,14.68,8.91,43.76,43.76,0,0,0,7.12,3,18.27,18.27,0,0,0,5.82.93,7.61,7.61,0,0,0,5.53-2.35c.15-.16.31-.31.47-.45a1.85,1.85,0,0,1,.34-.23c.15-.08.34-.18.46,0a.5.5,0,0,1,0,.43,16.27,16.27,0,0,1-1,1.58,10,10,0,0,1-4.23,3.3,10.28,10.28,0,0,1-2.84.6,15.8,15.8,0,0,1-3.15-.06,18.89,18.89,0,0,1-3.55-.84,45.37,45.37,0,0,1-8.59-3.94,129.45,129.45,0,0,1-14.84-9.91c-1.15-.89-2.21-1.91-3.31-2.87-.65-.57-1.31-1.15-2-1.7-.41-.34-.44-.32-.81,0s-.46.46-.68.7a5.58,5.58,0,0,1-2.93,1.68,6.54,6.54,0,0,1-3.59-.06,3.18,3.18,0,0,1-2.37-3.36,3.78,3.78,0,0,1,3.23-3.73,3.34,3.34,0,0,1,1.47.15q1,.24,1.92.51a.7.7,0,0,0,.85-.33,14.32,14.32,0,0,0,1.35-2.68c1-2.48,1.74-5,2.52-7.57s1.49-4.86,2.48-7.21a22.46,22.46,0,0,1,2.68-4.81,8.94,8.94,0,0,1,5.33-3.48,9.22,9.22,0,0,1,6.87,1,6.89,6.89,0,0,1,2,1.82,4.46,4.46,0,0,1,.59,4.3,9.29,9.29,0,0,1-3.61,4.75,12.44,12.44,0,0,1-5.42,2.16c-.65.1-1.31.16-2,.27a1.18,1.18,0,0,1-1.39-1,1.56,1.56,0,0,1,1.24-1.92l2.07-.29A5.9,5.9,0,0,0,211,105.6a8.31,8.31,0,0,0,.4-2.57,2.92,2.92,0,0,0-.74-2,2.53,2.53,0,0,0-2.64-.66,6.27,6.27,0,0,0-3.56,2.42,14.76,14.76,0,0,0-2.33,4.55c-.83,2.55-1.58,5.13-2.36,7.69-.7,2.27-1.36,4.55-2.11,6.8a17.49,17.49,0,0,1-1.15,2.44c-.36.7-.77,1.37-1.13,2.08s-.39.69.25,1.24a25,25,0,0,0,2.18,1.66c1.27.89,2.56,1.75,3.84,2.62a.1.1,0,0,0,.11,0l-.19-.17a2.61,2.61,0,0,1-.78-2.66,13.21,13.21,0,0,1,1.9-4.33,16,16,0,0,1,3.79-4.07,5.85,5.85,0,0,1,4.22-1.16,10.83,10.83,0,0,1,4.3,1.32,3.45,3.45,0,0,1,1.5,1.5,1.23,1.23,0,0,1-.59,1.85,2.7,2.7,0,0,1-2,.17c-.4-.11-.46-.3-.3-.69a4.06,4.06,0,0,0,.25-.84.59.59,0,0,0-.4-.63,1.75,1.75,0,0,0-1.15-.07,5.91,5.91,0,0,0-1.79.81,15.8,15.8,0,0,0-5.91,6.56,5.72,5.72,0,0,0-.37,1.15.5.5,0,0,0,.12.42.54.54,0,0,0,.46,0,5.7,5.7,0,0,0,.95-.75c.95-1,1.88-2,2.8-3,.66-.71,1.29-1.44,2-2.14a2.27,2.27,0,0,1,1.63-.76,4.75,4.75,0,0,1,2.13.45,3.31,3.31,0,0,1,.69.43.89.89,0,0,1,.3,1,3.37,3.37,0,0,1-.28.61,21.22,21.22,0,0,0-2.2,4.88,2.13,2.13,0,0,0-.07,1.12c.09.34.23.44.57.33a3.65,3.65,0,0,0,.54-.23,8.58,8.58,0,0,0,2.84-2.45l.1-.17c.6-1.29,1.17-2.59,1.79-3.86a53.82,53.82,0,0,1,8.64-12.69c.72-.78,1.5-1.49,2.23-2.26a1.21,1.21,0,0,1,1.37-.32,4,4,0,0,1,2,1.32,1.34,1.34,0,0,1,0,2c-.85,1-1.72,1.91-2.59,2.86a60.56,60.56,0,0,0-5.88,7.47,1.53,1.53,0,0,0-.1.17l1-.26a5.78,5.78,0,0,1,2.19-.2,3.67,3.67,0,0,1,3.18,3.18,6,6,0,0,1-.67,3.22,9.18,9.18,0,0,1-1.7,2.4l-.85,1a1.54,1.54,0,0,0,1.2.23,3.71,3.71,0,0,0,1.47-.86c.19-.15.37-.32.55-.49a.75.75,0,0,1,.8-.19,1.5,1.5,0,0,1,.95.77.77.77,0,0,1-.12,1,5.09,5.09,0,0,1-3.27,1.68,2.88,2.88,0,0,1-1.33-.26c-.46-.17-.92-.36-1.37-.56a.55.55,0,0,0-.59.08l-.65.5a6.52,6.52,0,0,1-3.21,1.41,5.4,5.4,0,0,1-4.81-1.69,3,3,0,0,1-.73-1.89S216.13,134,216.13,134.05Zm3.27.67c0,.74.32,1,.94.88a2.88,2.88,0,0,0,.94-.39,8.66,8.66,0,0,0,1.22-1,15.31,15.31,0,0,0,3.57-5.53,4.06,4.06,0,0,0,.34-1.54.84.84,0,0,0-1-.9l-.3.07a5.45,5.45,0,0,0-3.1,2.32,22.68,22.68,0,0,0-2.08,4.15A7.31,7.31,0,0,0,219.4,134.72Zm-30-7.62-.1-.06-.2-.07a4.43,4.43,0,0,0-2.17,0,5,5,0,0,0-1.51.52,1,1,0,0,0-.48,1.09,1,1,0,0,0,.83.76,2.07,2.07,0,0,0,1.62-.31,9.49,9.49,0,0,0,1.88-1.7Z" transform="translate(-83.41 -66.31)"/><path class="cls-8" d="M170.16,104.09a6.25,6.25,0,0,0,.84.17c1.29.12,2.59.22,3.88.32s2.34.17,3.52.24c1.75.1,3.5.21,5.26.27,1,0,2.09,0,3.13,0a14.15,14.15,0,0,0,3.72-.52,2.25,2.25,0,0,0,1.16-.72,1.12,1.12,0,0,0,.26-.91,4.87,4.87,0,0,1-.05-.65,2,2,0,0,0-.27-1,3.15,3.15,0,0,1-.13-.29,1.92,1.92,0,0,1,.4.1,4.59,4.59,0,0,1,2.22,2.41,2.7,2.7,0,0,1-1.14,3.35,6.6,6.6,0,0,1-2.47,1,23.93,23.93,0,0,1-6.15.36c-1.26,0-2.51-.13-3.76-.24s-2.7-.26-4.05-.41-2.64-.32-4-.5c-.83-.11-1.65-.27-2.47-.4a2,2,0,0,0-.24,0c-.66-.07-.66-.07-.94.54a34.39,34.39,0,0,0-2.09,6.16,55.9,55.9,0,0,0-1.12,5.71,25.93,25.93,0,0,0-.32,4.82,7.32,7.32,0,0,0,.36,2.07,1.43,1.43,0,0,0,.83,1,1.19,1.19,0,0,0,1-.15,4.93,4.93,0,0,0,1.46-1.38,10.47,10.47,0,0,0,1.91-4.59c.05-.34.11-.4.46-.42a2.79,2.79,0,0,1,1.47.33c.24.13.31.27.24.49a19.47,19.47,0,0,1-1.62,4.09,8.44,8.44,0,0,1-2.12,2.56,5.12,5.12,0,0,1-3.72,1,4.65,4.65,0,0,1-1.6-.36,3.25,3.25,0,0,1-1.53-1.35c-.31-.53-.56-1.1-.84-1.66l-.38.4a10.55,10.55,0,0,1-5.55,3.19,9.42,9.42,0,0,1-4,0,4.82,4.82,0,0,1-2.82-1.88l-.18-.25c-.39.38-.75.78-1.15,1.13a9.88,9.88,0,0,1-6.08,2.53,6.7,6.7,0,0,1-2.71-.29,5,5,0,0,1-3-2.94,2.6,2.6,0,0,1-.1-.25l-.83.26a2.74,2.74,0,0,1-1.93-.17c-.52-.21-1-.47-1.56-.72a4.31,4.31,0,0,0-.15.43c-.42,1.55-.85,3.09-1.27,4.63a1.83,1.83,0,0,1-1,1.24,5.33,5.33,0,0,1-4.4.26,1.08,1.08,0,0,1-.77-1.33c.11-.86.24-1.71.32-2.57a12.54,12.54,0,0,0-.08-3.06q-.15-1.06-.33-2.13s0-.07-.07-.11c-.07.49-.15,1-.23,1.48-.44,2.66-.79,5.33-1.39,8-.08.34-.2.67-.29,1a1,1,0,0,1-.92.74,6.16,6.16,0,0,1-2-.08,7.35,7.35,0,0,1-2.57-1,2.28,2.28,0,0,1-1-1.13,25.24,25.24,0,0,1-1-3.42c-.5-2.06-.9-4.14-1.22-6.24,0-.21,0-.42-.08-.63a.74.74,0,0,1,.26-.64,3.07,3.07,0,0,1,1.31-.66,4.62,4.62,0,0,1,3.07,0,1,1,0,0,1,.73.93c0,.16,0,.32,0,.48,0,.9,0,1.8,0,2.7s.16,2,.28,2.94a25.21,25.21,0,0,0,.83,3.95,2.53,2.53,0,0,0,.24.53c.24.37.56.37.76,0a2.93,2.93,0,0,0,.3-.81c.42-2,.8-4,1-6.06a19.78,19.78,0,0,0,.14-3.35,3.4,3.4,0,0,1,0-.78,1.05,1.05,0,0,1,.65-.88,3.89,3.89,0,0,1,2.81,0,1.17,1.17,0,0,1,.24.09,1.36,1.36,0,0,1,1,1.35c.06,1.29.13,2.58.23,3.87s.25,2.55.38,3.83c0,.11.07.21.1.32l.06,0a1.7,1.7,0,0,0,.19-.35c.24-.84.52-1.68.71-2.54a28.64,28.64,0,0,0,.65-5.61,13.54,13.54,0,0,0-.33-3,.77.77,0,0,1,.47-1,4.1,4.1,0,0,1,1.46-.38,6,6,0,0,1,1.84.12l.28.11a.37.37,0,0,1,.28.44,29.12,29.12,0,0,0-.09,3.85,14.79,14.79,0,0,0,.35,2.81,4,4,0,0,0,.15.45.8.8,0,0,0,1.17.42,1.32,1.32,0,0,0,.79-1.15,9.77,9.77,0,0,1,.61-3.12,11,11,0,0,1,2.53-3.8,8.08,8.08,0,0,1,4.75-2.25,4.52,4.52,0,0,1,1.64,0,2.48,2.48,0,0,1,1.86,2,4.67,4.67,0,0,1-.39,2.94,5.82,5.82,0,0,1-2.45,2.78,3.78,3.78,0,0,1-2.57.44c-.38-.06-.77-.08-1.15-.12a.29.29,0,0,0-.34.2,4.82,4.82,0,0,0-.25,3.11,2.54,2.54,0,0,0,2.85,1.82,6,6,0,0,0,2.83-1.24,10.05,10.05,0,0,0,2.49-2.59.63.63,0,0,0,.11-.38,9.74,9.74,0,0,1,3.42-8.07,7.86,7.86,0,0,1,5-2.08,5,5,0,0,1,1.54.07,2.51,2.51,0,0,1,1.9,2.08,4.84,4.84,0,0,1-.64,3.16,5.5,5.5,0,0,1-3.54,2.81,3.79,3.79,0,0,1-1.64-.08l-1.15-.2a.25.25,0,0,0-.31.15,4.44,4.44,0,0,0-.41,3.4,2.44,2.44,0,0,0,2.36,1.73,5,5,0,0,0,2.52-.66,10.58,10.58,0,0,0,4.22-4.09.48.48,0,0,0,.06-.29,24.81,24.81,0,0,1,.13-4,71.13,71.13,0,0,1,2.2-11.11c.09-.3.14-.61.22-.91a.23.23,0,0,0-.19-.32,12.36,12.36,0,0,0-1.32-.27c-1.71-.18-3.43-.37-5.15-.5a17.11,17.11,0,0,0-7.38.8,12.76,12.76,0,0,0-1.33.54c-.43.21-.84.48-1.25.73s-.39.18-.6-.06a1.15,1.15,0,0,1,.05-1.81,4.8,4.8,0,0,1,2.06-1.13,17.73,17.73,0,0,1,3.68-.71,35.42,35.42,0,0,1,4.83-.12c1,0,1.91.18,2.86.28,1.2.12,2.39.27,3.59.36.71.05.84-.08,1.1-.74.13-.34.25-.7.4-1a2.6,2.6,0,0,1,1.56-1.63,4.5,4.5,0,0,1,3.9.53,1.22,1.22,0,0,1,.28,1.88c-.26.34-.5.69-.75,1Zm-28.4,17.78a2.14,2.14,0,0,0,1-.35,4,4,0,0,0,1.64-2.1,2.62,2.62,0,0,0,.14-1.36.87.87,0,0,0-1.32-.64,1.9,1.9,0,0,0-.44.3,7.34,7.34,0,0,0-2,3.1,1.7,1.7,0,0,0-.08.45.35.35,0,0,0,.25.37Zm12.8-1.25a5.46,5.46,0,0,0,.89-.3,3.86,3.86,0,0,0,1.86-2.15,2.32,2.32,0,0,0,.16-1.3.85.85,0,0,0-1.18-.64,2.87,2.87,0,0,0-.67.41,7.44,7.44,0,0,0-2,2.66,2.52,2.52,0,0,0-.17.53.35.35,0,0,0,.18.45C153.92,120.41,154.24,120.51,154.56,120.62Z" transform="translate(-83.41 -66.31)"/><path class="cls-9" d="M88.91,114c.08-.45.14-.91.25-1.36a10.8,10.8,0,0,1,3-5.18,17.66,17.66,0,0,1,6.16-3.91,24.6,24.6,0,0,1,4.75-1.38,18.14,18.14,0,0,1,4-.2,17,17,0,0,1,3.34.45,8.54,8.54,0,0,1,4.22,2.55,2.44,2.44,0,0,1,.66,1.77,3.83,3.83,0,0,1-.83,2.46,3.63,3.63,0,0,1-.81.64.82.82,0,0,1-1-.09,2.16,2.16,0,0,1-.38-.36,8.93,8.93,0,0,0-4.87-3.17,12.23,12.23,0,0,0-11.11,2.27,7.31,7.31,0,0,0-2.76,4.31,6,6,0,0,0,.48,3.62,7.2,7.2,0,0,0,3.79,3.77,25,25,0,0,0,4.58,1.56,37.77,37.77,0,0,1,6.12,2,11.32,11.32,0,0,1,3.85,2.66,8.61,8.61,0,0,1,2.24,5,11.29,11.29,0,0,1-1.19,6.07,14.35,14.35,0,0,1-4.7,5.69,13.66,13.66,0,0,1-5.18,2.1,13.23,13.23,0,0,1-4.07.21A8.77,8.77,0,0,1,95.18,144a6.13,6.13,0,0,1-2-2.56,1.41,1.41,0,0,1-.12-.5.58.58,0,0,1,.57-.68,3,3,0,0,1,1,.1,23.77,23.77,0,0,0,4.49.88,11.94,11.94,0,0,0,4-.38,11.75,11.75,0,0,0,4.75-2.3A8.66,8.66,0,0,0,111,134a6.33,6.33,0,0,0-1.88-6.4,9.08,9.08,0,0,0-4.16-2.23c-1.31-.34-2.65-.61-4-.88A30.69,30.69,0,0,1,94,122.4a8.44,8.44,0,0,1-4.21-4.2,8.93,8.93,0,0,1-.88-3.12.54.54,0,0,0,0-.1Z" transform="translate(-83.41 -66.31)"/><path class="cls-9" d="M216.13,134.05c-.66.3-1.3.66-2,.9a3.84,3.84,0,0,1-3.84-.71,3.49,3.49,0,0,1-1.23-2.33c-.09-.73-.09-1.48-.13-2.21a2.76,2.76,0,0,1,0-.29l-.67.51c-1.06.75-2.11,1.52-3.17,2.26a3.13,3.13,0,0,1-1.42.62,5.22,5.22,0,0,1-.88,0l.08,0a155.44,155.44,0,0,0,14.68,8.91,43.76,43.76,0,0,0,7.12,3,18.27,18.27,0,0,0,5.82.93,7.61,7.61,0,0,0,5.53-2.35c.15-.16.31-.31.47-.45a1.85,1.85,0,0,1,.34-.23c.15-.08.34-.18.46,0a.5.5,0,0,1,0,.43,16.27,16.27,0,0,1-1,1.58,10,10,0,0,1-4.23,3.3,10.28,10.28,0,0,1-2.84.6,15.8,15.8,0,0,1-3.15-.06,18.89,18.89,0,0,1-3.55-.84,45.37,45.37,0,0,1-8.59-3.94,129.45,129.45,0,0,1-14.84-9.91c-1.15-.89-2.21-1.91-3.31-2.87-.65-.57-1.31-1.15-2-1.7-.41-.34-.44-.32-.81,0s-.46.46-.68.7a5.58,5.58,0,0,1-2.93,1.68,6.54,6.54,0,0,1-3.59-.06,3.18,3.18,0,0,1-2.37-3.36,3.78,3.78,0,0,1,3.23-3.73,3.34,3.34,0,0,1,1.47.15q1,.24,1.92.51a.7.7,0,0,0,.85-.33,14.32,14.32,0,0,0,1.35-2.68c1-2.48,1.74-5,2.52-7.57s1.49-4.86,2.48-7.21a22.46,22.46,0,0,1,2.68-4.81,8.94,8.94,0,0,1,5.33-3.48,9.22,9.22,0,0,1,6.87,1,6.89,6.89,0,0,1,2,1.82,4.46,4.46,0,0,1,.59,4.3,9.29,9.29,0,0,1-3.61,4.75,12.44,12.44,0,0,1-5.42,2.16c-.65.1-1.31.16-2,.27a1.18,1.18,0,0,1-1.39-1,1.56,1.56,0,0,1,1.24-1.92l2.07-.29A5.9,5.9,0,0,0,211,105.6a8.31,8.31,0,0,0,.4-2.57,2.92,2.92,0,0,0-.74-2,2.53,2.53,0,0,0-2.64-.66,6.27,6.27,0,0,0-3.56,2.42,14.76,14.76,0,0,0-2.33,4.55c-.83,2.55-1.58,5.13-2.36,7.69-.7,2.27-1.36,4.55-2.11,6.8a17.49,17.49,0,0,1-1.15,2.44c-.36.7-.77,1.37-1.13,2.08s-.39.69.25,1.24a25,25,0,0,0,2.18,1.66c1.27.89,2.56,1.75,3.84,2.62a.1.1,0,0,0,.11,0l-.19-.17a2.61,2.61,0,0,1-.78-2.66,13.21,13.21,0,0,1,1.9-4.33,16,16,0,0,1,3.79-4.07,5.85,5.85,0,0,1,4.22-1.16,10.83,10.83,0,0,1,4.3,1.32,3.45,3.45,0,0,1,1.5,1.5,1.23,1.23,0,0,1-.59,1.85,2.7,2.7,0,0,1-2,.17c-.4-.11-.46-.3-.3-.69a4.06,4.06,0,0,0,.25-.84.59.59,0,0,0-.4-.63,1.75,1.75,0,0,0-1.15-.07,5.91,5.91,0,0,0-1.79.81,15.8,15.8,0,0,0-5.91,6.56,5.72,5.72,0,0,0-.37,1.15.5.5,0,0,0,.12.42.54.54,0,0,0,.46,0,5.7,5.7,0,0,0,.95-.75c.95-1,1.88-2,2.8-3,.66-.71,1.29-1.44,2-2.14a2.27,2.27,0,0,1,1.63-.76,4.75,4.75,0,0,1,2.13.45,3.31,3.31,0,0,1,.69.43.89.89,0,0,1,.3,1,3.37,3.37,0,0,1-.28.61,21.22,21.22,0,0,0-2.2,4.88,2.13,2.13,0,0,0-.07,1.12c.09.34.23.44.57.33a3.65,3.65,0,0,0,.54-.23,8.58,8.58,0,0,0,2.84-2.45l.1-.17c.6-1.29,1.17-2.59,1.79-3.86a53.82,53.82,0,0,1,8.64-12.69c.72-.78,1.5-1.49,2.23-2.26a1.21,1.21,0,0,1,1.37-.32,4,4,0,0,1,2,1.32,1.34,1.34,0,0,1,0,2c-.85,1-1.72,1.91-2.59,2.86a60.56,60.56,0,0,0-5.88,7.47,1.53,1.53,0,0,0-.1.17l1-.26a5.78,5.78,0,0,1,2.19-.2,3.67,3.67,0,0,1,3.18,3.18,6,6,0,0,1-.67,3.22,9.18,9.18,0,0,1-1.7,2.4l-.85,1a1.54,1.54,0,0,0,1.2.23,3.71,3.71,0,0,0,1.47-.86c.19-.15.37-.32.55-.49a.75.75,0,0,1,.8-.19,1.5,1.5,0,0,1,.95.77.77.77,0,0,1-.12,1,5.09,5.09,0,0,1-3.27,1.68,2.88,2.88,0,0,1-1.33-.26c-.46-.17-.92-.36-1.37-.56a.55.55,0,0,0-.59.08l-.65.5a6.52,6.52,0,0,1-3.21,1.41,5.4,5.4,0,0,1-4.81-1.69,3,3,0,0,1-.73-1.89S216.13,134,216.13,134.05Zm3.27.67c0,.74.32,1,.94.88a2.88,2.88,0,0,0,.94-.39,8.66,8.66,0,0,0,1.22-1,15.31,15.31,0,0,0,3.57-5.53,4.06,4.06,0,0,0,.34-1.54.84.84,0,0,0-1-.9l-.3.07a5.45,5.45,0,0,0-3.1,2.32,22.68,22.68,0,0,0-2.08,4.15A7.31,7.31,0,0,0,219.4,134.72Zm-30-7.62-.1-.06-.2-.07a4.43,4.43,0,0,0-2.17,0,5,5,0,0,0-1.51.52,1,1,0,0,0-.48,1.09,1,1,0,0,0,.83.76,2.07,2.07,0,0,0,1.62-.31,9.49,9.49,0,0,0,1.88-1.7Z" transform="translate(-83.41 -66.31)"/><path class="cls-9" d="M170.16,104.09a6.25,6.25,0,0,0,.84.17c1.29.12,2.59.22,3.88.32s2.34.17,3.52.24c1.75.1,3.5.21,5.26.27,1,0,2.09,0,3.13,0a14.15,14.15,0,0,0,3.72-.52,2.25,2.25,0,0,0,1.16-.72,1.12,1.12,0,0,0,.26-.91,4.87,4.87,0,0,1-.05-.65,2,2,0,0,0-.27-1,3.15,3.15,0,0,1-.13-.29,1.92,1.92,0,0,1,.4.1,4.59,4.59,0,0,1,2.22,2.41,2.7,2.7,0,0,1-1.14,3.35,6.6,6.6,0,0,1-2.47,1,23.93,23.93,0,0,1-6.15.36c-1.26,0-2.51-.13-3.76-.24s-2.7-.26-4.05-.41-2.64-.32-4-.5c-.83-.11-1.65-.27-2.47-.4a2,2,0,0,0-.24,0c-.66-.07-.66-.07-.94.54a34.39,34.39,0,0,0-2.09,6.16,55.9,55.9,0,0,0-1.12,5.71,25.93,25.93,0,0,0-.32,4.82,7.32,7.32,0,0,0,.36,2.07,1.43,1.43,0,0,0,.83,1,1.19,1.19,0,0,0,1-.15,4.93,4.93,0,0,0,1.46-1.38,10.47,10.47,0,0,0,1.91-4.59c.05-.34.11-.4.46-.42a2.79,2.79,0,0,1,1.47.33c.24.13.31.27.24.49a19.47,19.47,0,0,1-1.62,4.09,8.44,8.44,0,0,1-2.12,2.56,5.12,5.12,0,0,1-3.72,1,4.65,4.65,0,0,1-1.6-.36,3.25,3.25,0,0,1-1.53-1.35c-.31-.53-.56-1.1-.84-1.66l-.38.4a10.55,10.55,0,0,1-5.55,3.19,9.42,9.42,0,0,1-4,0,4.82,4.82,0,0,1-2.82-1.88l-.18-.25c-.39.38-.75.78-1.15,1.13a9.88,9.88,0,0,1-6.08,2.53,6.7,6.7,0,0,1-2.71-.29,5,5,0,0,1-3-2.94,2.6,2.6,0,0,1-.1-.25l-.83.26a2.74,2.74,0,0,1-1.93-.17c-.52-.21-1-.47-1.56-.72a4.31,4.31,0,0,0-.15.43c-.42,1.55-.85,3.09-1.27,4.63a1.83,1.83,0,0,1-1,1.24,5.33,5.33,0,0,1-4.4.26,1.08,1.08,0,0,1-.77-1.33c.11-.86.24-1.71.32-2.57a12.54,12.54,0,0,0-.08-3.06q-.15-1.06-.33-2.13s0-.07-.07-.11c-.07.49-.15,1-.23,1.48-.44,2.66-.79,5.33-1.39,8-.08.34-.2.67-.29,1a1,1,0,0,1-.92.74,6.16,6.16,0,0,1-2-.08,7.35,7.35,0,0,1-2.57-1,2.28,2.28,0,0,1-1-1.13,25.24,25.24,0,0,1-1-3.42c-.5-2.06-.9-4.14-1.22-6.24,0-.21,0-.42-.08-.63a.74.74,0,0,1,.26-.64,3.07,3.07,0,0,1,1.31-.66,4.62,4.62,0,0,1,3.07,0,1,1,0,0,1,.73.93c0,.16,0,.32,0,.48,0,.9,0,1.8,0,2.7s.16,2,.28,2.94a25.21,25.21,0,0,0,.83,3.95,2.53,2.53,0,0,0,.24.53c.24.37.56.37.76,0a2.93,2.93,0,0,0,.3-.81c.42-2,.8-4,1-6.06a19.78,19.78,0,0,0,.14-3.35,3.4,3.4,0,0,1,0-.78,1.05,1.05,0,0,1,.65-.88,3.89,3.89,0,0,1,2.81,0,1.17,1.17,0,0,1,.24.09,1.38,1.38,0,0,1,1,1.35c0,1.29.12,2.58.22,3.87s.25,2.55.38,3.83c0,.11.07.21.1.32l.06,0a1.7,1.7,0,0,0,.19-.35c.24-.84.52-1.68.71-2.54a28.64,28.64,0,0,0,.65-5.61,13.54,13.54,0,0,0-.33-3,.77.77,0,0,1,.47-1,4.1,4.1,0,0,1,1.46-.38,6,6,0,0,1,1.84.12l.28.11a.37.37,0,0,1,.28.44,29.12,29.12,0,0,0-.09,3.85,14.79,14.79,0,0,0,.35,2.81,4,4,0,0,0,.15.45.8.8,0,0,0,1.17.42,1.32,1.32,0,0,0,.79-1.15,9.77,9.77,0,0,1,.61-3.12,11,11,0,0,1,2.53-3.8,8.08,8.08,0,0,1,4.75-2.25,4.52,4.52,0,0,1,1.64,0,2.48,2.48,0,0,1,1.86,2,4.67,4.67,0,0,1-.39,2.94,5.82,5.82,0,0,1-2.45,2.78,3.78,3.78,0,0,1-2.57.44c-.38-.06-.77-.08-1.15-.12a.29.29,0,0,0-.34.2,4.82,4.82,0,0,0-.25,3.11,2.54,2.54,0,0,0,2.85,1.82,6,6,0,0,0,2.83-1.24,10.05,10.05,0,0,0,2.49-2.59.63.63,0,0,0,.11-.38,9.74,9.74,0,0,1,3.42-8.07,7.86,7.86,0,0,1,5-2.08,5,5,0,0,1,1.54.07,2.51,2.51,0,0,1,1.9,2.08,4.84,4.84,0,0,1-.64,3.16,5.5,5.5,0,0,1-3.54,2.81,3.79,3.79,0,0,1-1.64-.08l-1.15-.2a.25.25,0,0,0-.31.15,4.44,4.44,0,0,0-.41,3.4,2.44,2.44,0,0,0,2.36,1.73,5,5,0,0,0,2.52-.66,10.58,10.58,0,0,0,4.22-4.09.48.48,0,0,0,.06-.29,24.81,24.81,0,0,1,.13-4,71.13,71.13,0,0,1,2.2-11.11c.09-.3.14-.61.22-.91a.23.23,0,0,0-.19-.32,12.36,12.36,0,0,0-1.32-.27c-1.71-.18-3.43-.37-5.15-.5a17.11,17.11,0,0,0-7.38.8,12.76,12.76,0,0,0-1.33.54c-.43.21-.84.48-1.25.73s-.39.18-.6-.06a1.15,1.15,0,0,1,.05-1.81,4.8,4.8,0,0,1,2.06-1.13,17.73,17.73,0,0,1,3.68-.71,35.42,35.42,0,0,1,4.83-.12c1,0,1.91.18,2.86.28,1.2.12,2.39.27,3.59.36.71.05.84-.08,1.1-.74.13-.34.25-.7.4-1a2.6,2.6,0,0,1,1.56-1.63,4.5,4.5,0,0,1,3.9.53,1.22,1.22,0,0,1,.28,1.88c-.26.34-.5.69-.75,1Zm-28.4,17.78a2.14,2.14,0,0,0,1-.35,4,4,0,0,0,1.64-2.1,2.62,2.62,0,0,0,.14-1.36.87.87,0,0,0-1.32-.64,1.9,1.9,0,0,0-.44.3,7.34,7.34,0,0,0-2,3.1,1.7,1.7,0,0,0-.08.45.35.35,0,0,0,.25.37Zm12.8-1.25a5.46,5.46,0,0,0,.89-.3,3.86,3.86,0,0,0,1.86-2.15,2.32,2.32,0,0,0,.16-1.3.85.85,0,0,0-1.18-.64,2.87,2.87,0,0,0-.67.41,7.44,7.44,0,0,0-2,2.66,2.52,2.52,0,0,0-.17.53.35.35,0,0,0,.18.45C153.92,120.41,154.24,120.51,154.56,120.62Z" transform="translate(-83.41 -66.31)"/></svg>