<svg id="Capa_1" data-name="Capa 1" xmlns="http://www.w3.org/2000/svg" viewBox="0 0 380.2 153.32"><defs><style>.cls-1{stroke:#00acd8;stroke-width:25.96px;}.cls-1,.cls-2{stroke-miterlimit:10;}.cls-1,.cls-2,.cls-3{fill-rule:evenodd;}.cls-2{stroke:#fff;stroke-width:21.24px;}.cls-3{fill:#fb5373;}</style></defs><path class="cls-1" d="M117.12,381.45c.12-1.09.18-2.18.36-3.25a25.63,25.63,0,0,1,6.32-12.69,42,42,0,0,1,13.89-10.19,56.08,56.08,0,0,1,10.95-4,46.57,46.57,0,0,1,17.39-.6,20.13,20.13,0,0,1,10.34,5.33,5.68,5.68,0,0,1,1.85,4.05,9,9,0,0,1-1.57,5.93,8.06,8.06,0,0,1-1.81,1.63,1.89,1.89,0,0,1-2.27-.05,4.69,4.69,0,0,1-.94-.79,21.11,21.11,0,0,0-12-6.67,28.84,28.84,0,0,0-25.79,7.12,17.12,17.12,0,0,0-5.8,10.58,14,14,0,0,0,1.7,8.46,17,17,0,0,0,9.53,8.28,61,61,0,0,0,11,2.93A87.77,87.77,0,0,1,165,401.27a26.57,26.57,0,0,1,9.51,5.65,20.42,20.42,0,0,1,6.08,11.5,26.7,26.7,0,0,1-1.84,14.48,33.9,33.9,0,0,1-10.15,14.15,32.49,32.49,0,0,1-11.85,5.78,31.74,31.74,0,0,1-9.55,1.15,20.64,20.64,0,0,1-10.54-2.77,14.56,14.56,0,0,1-5-5.71,3.56,3.56,0,0,1-.36-1.16,1.38,1.38,0,0,1,1.24-1.69,7.28,7.28,0,0,1,2.33.07,55.28,55.28,0,0,0,10.72,1.36,27.65,27.65,0,0,0,9.32-1.53,27.93,27.93,0,0,0,10.83-6.17A20.51,20.51,0,0,0,172.23,425c1.06-6-.92-10.89-5.47-14.78a21.32,21.32,0,0,0-10.13-4.57c-3.15-.6-6.34-1-9.52-1.44a72.74,72.74,0,0,1-16.59-3.8A19.94,19.94,0,0,1,120,391.23a21,21,0,0,1-2.58-7.19.92.92,0,0,0-.09-.23Z" transform="translate(-104.09 -313.66)"/><path class="cls-1" d="M419.9,408.3c-1.51.83-3,1.77-4.51,2.43a9,9,0,0,1-9.15-1,8.24,8.24,0,0,1-3.27-5.3c-.34-1.71-.45-3.46-.67-5.19,0-.18,0-.36,0-.66-.55.48-1,.9-1.49,1.29-2.37,1.95-4.72,3.91-7.12,5.83a7.47,7.47,0,0,1-3.23,1.7,11.77,11.77,0,0,1-2.06.05l.18.1a365.49,365.49,0,0,0,36,18.61,103.45,103.45,0,0,0,17.26,6,43.32,43.32,0,0,0,13.84,1.26A17.9,17.9,0,0,0,468.27,427c.33-.4.69-.77,1.05-1.13a4.13,4.13,0,0,1,.77-.61c.33-.2.77-.47,1.07-.14a1.19,1.19,0,0,1,.06,1,36.94,36.94,0,0,1-2.11,3.86,23.16,23.16,0,0,1-9.45,8.45,23.9,23.9,0,0,1-6.59,1.87,36.14,36.14,0,0,1-7.42.36,43,43,0,0,1-8.49-1.39,107.27,107.27,0,0,1-20.86-7.91,309.55,309.55,0,0,1-36.54-21c-2.85-1.92-5.49-4.14-8.24-6.22-1.63-1.24-3.26-2.5-4.93-3.7-1-.73-1.06-.69-1.87.25-.51.58-1,1.16-1.49,1.77a13.23,13.23,0,0,1-6.65,4.42,15.57,15.57,0,0,1-8.45.43,7.48,7.48,0,0,1-6.11-7.53,8.87,8.87,0,0,1,7-9.3,8.13,8.13,0,0,1,3.47.1c1.54.29,3.09.59,4.62.9a1.64,1.64,0,0,0,1.95-.91,32.36,32.36,0,0,0,2.73-6.52c1.92-6,3.3-12.12,4.74-18.24a173.65,173.65,0,0,1,4.68-17.36,52.2,52.2,0,0,1,5.53-11.76,21.14,21.14,0,0,1,12-9.05,21.8,21.8,0,0,1,16.34,1.18,16.15,16.15,0,0,1,5.06,4,10.57,10.57,0,0,1,2.07,10,22,22,0,0,1-7.74,11.76A29.4,29.4,0,0,1,392,360.57c-1.52.33-3.06.6-4.57,1a2.81,2.81,0,0,1-3.45-2.19,3.71,3.71,0,0,1,2.62-4.72l4.83-1c6.39-1.28,10.24-5.14,11.66-11.46a19,19,0,0,0,.52-6.11,6.79,6.79,0,0,0-2-4.48c-1.85-1.74-4.05-1.85-6.33-1.14a14.79,14.79,0,0,0-8,6.28,35,35,0,0,0-4.76,11.08c-1.53,6.14-2.89,12.33-4.33,18.5-1.27,5.45-2.47,10.93-3.87,16.35a43.56,43.56,0,0,1-2.31,5.91c-.73,1.71-1.6,3.37-2.33,5.08-.64,1.52-.81,1.7.78,2.89a61.28,61.28,0,0,0,5.4,3.55c3.13,1.89,6.31,3.71,9.48,5.56a.23.23,0,0,0,.25,0l-.47-.37a6.15,6.15,0,0,1-2.28-6.13,30.76,30.76,0,0,1,3.8-10.49,36.74,36.74,0,0,1,8.27-10.21,13.84,13.84,0,0,1,9.73-3.4,25.72,25.72,0,0,1,10.36,2.4,8.5,8.5,0,0,1,3.77,3.3c1.08,1.79.75,3.27-1.11,4.45a6.28,6.28,0,0,1-4.76.73c-1-.2-1.12-.64-.81-1.56a9,9,0,0,0,.46-2,1.37,1.37,0,0,0-1-1.43,4.16,4.16,0,0,0-2.72,0,13.8,13.8,0,0,0-4.09,2.19,37.3,37.3,0,0,0-12.85,16.39,13.08,13.08,0,0,0-.7,2.77,1.12,1.12,0,0,0,.36,1,1.21,1.21,0,0,0,1.07-.13,12.87,12.87,0,0,0,2.12-1.92c2.08-2.46,4.1-5,6.12-7.47,1.43-1.77,2.79-3.6,4.25-5.35a5.38,5.38,0,0,1,3.73-2.05,11.4,11.4,0,0,1,5.08.71,8.06,8.06,0,0,1,1.71.92,2.09,2.09,0,0,1,.86,2.35,6.63,6.63,0,0,1-.56,1.48,50.49,50.49,0,0,0-4.39,11.84,4.83,4.83,0,0,0,0,2.64c.26.8.6,1,1.38.7a7.92,7.92,0,0,0,1.23-.63,20.39,20.39,0,0,0,6.3-6.24,2.67,2.67,0,0,0,.22-.41c1.19-3.12,2.33-6.27,3.6-9.37A126.58,126.58,0,0,1,442.56,359c1.56-1.95,3.3-3.76,4.89-5.68a2.84,2.84,0,0,1,3.17-1,9.49,9.49,0,0,1,4.93,2.78c1.47,1.65,1.53,3,.19,4.74-1.85,2.4-3.75,4.77-5.63,7.14a142.14,142.14,0,0,0-12.65,18.52c-.06.1-.11.21-.22.42l2.29-.76a13.78,13.78,0,0,1,5.13-.83,8.69,8.69,0,0,1,8,7A14.21,14.21,0,0,1,451.6,399,22.11,22.11,0,0,1,448,405c-.62.78-1.2,1.58-1.84,2.42a3.61,3.61,0,0,0,2.85.35,8.9,8.9,0,0,0,3.33-2.25c.42-.4.82-.82,1.22-1.25a1.79,1.79,0,0,1,1.85-.58,3.56,3.56,0,0,1,2.37,1.66,1.82,1.82,0,0,1-.15,2.29,11.94,11.94,0,0,1-7.43,4.48,7,7,0,0,1-3.17-.4c-1.12-.33-2.22-.71-3.31-1.09a1.24,1.24,0,0,0-1.37.27c-.48.43-1,.84-1.47,1.28a15.44,15.44,0,0,1-7.32,3.84A12.75,12.75,0,0,1,422,412.77a7.14,7.14,0,0,1-2-4.34C419.91,408.35,419.9,408.27,419.9,408.3Zm7.8,1.06c.1,1.73.92,2.36,2.36,1.92a6.75,6.75,0,0,0,2.13-1.06,22.13,22.13,0,0,0,2.72-2.49,36.36,36.36,0,0,0,7.54-13.58,9.68,9.68,0,0,0,.54-3.69,2,2,0,0,0-2.57-1.95,6,6,0,0,0-.69.2,12.88,12.88,0,0,0-6.93,6,52.62,52.62,0,0,0-4.23,10.1A17.22,17.22,0,0,0,427.7,409.36Zm-71.81-13.14a2.45,2.45,0,0,0-.25-.12,3.92,3.92,0,0,0-.49-.13,10.34,10.34,0,0,0-5.12.26,11.2,11.2,0,0,0-3.46,1.49,2.35,2.35,0,0,0,1.11,4.3,4.94,4.94,0,0,0,3.77-1,21.26,21.26,0,0,0,4.15-4.32A3.37,3.37,0,0,0,355.89,396.22Z" transform="translate(-104.09 -313.66)"/><path class="cls-1" d="M306.85,345.13a17.14,17.14,0,0,0,2,.27c3.06.06,6.12.09,9.19.12,2.77,0,5.55,0,8.32,0,4.15,0,8.29-.08,12.43-.21,2.46-.07,4.93-.25,7.38-.5a33.65,33.65,0,0,0,8.66-1.81,5.5,5.5,0,0,0,2.63-1.9,2.65,2.65,0,0,0,.47-2.18c-.1-.51-.18-1-.23-1.53a4.91,4.91,0,0,0-.79-2.25c-.11-.16-.18-.35-.35-.67a6.15,6.15,0,0,1,1,.18,10.73,10.73,0,0,1,5.6,5.32c1.74,3.47-.07,6.4-2.13,8.06a15.54,15.54,0,0,1-5.67,2.66,57.16,57.16,0,0,1-14.43,1.84c-3,.09-5.92.09-8.89,0-3.19-.05-6.39-.19-9.59-.33s-6.29-.32-9.42-.53c-2-.14-3.92-.37-5.88-.56-.18,0-.37,0-.56,0-1.57-.06-1.58-.06-2.14,1.43a83.42,83.42,0,0,0-3.93,14.84A130.12,130.12,0,0,0,298.77,381a59.27,59.27,0,0,0,0,11.38,17,17,0,0,0,1.17,4.82,3.39,3.39,0,0,0,2.11,2.1,2.81,2.81,0,0,0,2.38-.5,11.54,11.54,0,0,0,3.22-3.49,24.63,24.63,0,0,0,3.75-11.12c.08-.8.2-1,1-1.05a6.61,6.61,0,0,1,3.51.53c.58.26.78.58.66,1.12a46.39,46.39,0,0,1-3.18,9.89,20.07,20.07,0,0,1-4.58,6.38,12.1,12.1,0,0,1-8.6,2.87,11.26,11.26,0,0,1-3.82-.59,7.68,7.68,0,0,1-3.81-2.93c-.82-1.21-1.5-2.52-2.25-3.79-.23.28-.53.65-.84,1A24.79,24.79,0,0,1,277,406.05a21.79,21.79,0,0,1-9.4.61,11.32,11.32,0,0,1-6.93-4l-.47-.57c-.85,1-1.63,1.95-2.52,2.84a23.32,23.32,0,0,1-13.92,6.94,15.73,15.73,0,0,1-6.41-.26,11.82,11.82,0,0,1-7.53-6.44c-.09-.19-.17-.37-.26-.55l-1.91.74a6.59,6.59,0,0,1-4.57-.1c-1.26-.42-2.49-.94-3.81-1.45-.08.31-.19.67-.27,1.05-.75,3.7-1.51,7.4-2.24,11.1a4.33,4.33,0,0,1-2.1,3.08,12.48,12.48,0,0,1-10.31,1.3,2.51,2.51,0,0,1-2-3c.12-2,.27-4.07.34-6.1a30,30,0,0,0-.68-7.19c-.35-1.66-.74-3.31-1.11-5a.41.41,0,0,0-.19-.26c-.1,1.18-.2,2.36-.31,3.53-.62,6.33-1,12.68-2,19-.13.81-.35,1.6-.51,2.4a2.36,2.36,0,0,1-2.05,1.89,14.29,14.29,0,0,1-4.75.12,17.45,17.45,0,0,1-6.2-1.85,5.44,5.44,0,0,1-2.46-2.53,59.44,59.44,0,0,1-2.89-7.88c-1.51-4.78-2.78-9.62-3.86-14.51-.11-.48-.2-1-.29-1.46a1.75,1.75,0,0,1,.51-1.55,7.21,7.21,0,0,1,3-1.77,10.77,10.77,0,0,1,7.23-.45,2.43,2.43,0,0,1,1.88,2.07c0,.37,0,.75,0,1.13.15,2.11.23,4.24.49,6.34.29,2.31.7,4.6,1.15,6.89a57.47,57.47,0,0,0,2.58,9.16,4.89,4.89,0,0,0,.66,1.21c.6.83,1.35.78,1.78-.14a7.45,7.45,0,0,0,.56-2A142.31,142.31,0,0,0,196.57,404a43.32,43.32,0,0,0-.2-7.89,9.52,9.52,0,0,1-.06-1.85,2.47,2.47,0,0,1,1.41-2.17,9.17,9.17,0,0,1,6.59-.59c.2.05.39.12.59.18a3.27,3.27,0,0,1,2.56,3c.33,3,.7,6.05,1.14,9.07s1,6,1.52,8.95a4.3,4.3,0,0,0,.29.75l.15,0a4.38,4.38,0,0,0,.37-.83c.45-2,1-4.06,1.27-6.11a67.35,67.35,0,0,0,.63-13.31,31.11,31.11,0,0,0-1.25-7,1.82,1.82,0,0,1,.94-2.38,9.65,9.65,0,0,1,3.38-1.13,13.23,13.23,0,0,1,4.35,0,5.41,5.41,0,0,1,.69.19.9.9,0,0,1,.73,1,65.63,65.63,0,0,0,.4,9.08,35.5,35.5,0,0,0,1.27,6.54,6.7,6.7,0,0,0,.43,1,1.87,1.87,0,0,0,2.81.8,3.08,3.08,0,0,0,1.68-2.83,23,23,0,0,1,1-7.45,25.62,25.62,0,0,1,5.35-9.35,19,19,0,0,1,10.81-6,10.1,10.1,0,0,1,3.87-.21,5.83,5.83,0,0,1,4.7,4.49,11.05,11.05,0,0,1-.44,7,13.63,13.63,0,0,1-5.32,6.92,8.92,8.92,0,0,1-6,1.47c-.9-.09-1.81-.08-2.72-.11a.67.67,0,0,0-.76.53,11.29,11.29,0,0,0-.1,7.35,6,6,0,0,0,7,3.84,14.31,14.31,0,0,0,6.47-3.38,23.81,23.81,0,0,0,5.46-6.49,1.54,1.54,0,0,0,.19-.91c-1-7.64,1.55-14.06,6.75-19.56A18.86,18.86,0,0,1,275.9,371a12.28,12.28,0,0,1,3.63-.08,6,6,0,0,1,4.82,4.61,11.43,11.43,0,0,1-1,7.54,13,13,0,0,1-7.88,7.18,9,9,0,0,1-3.87.08l-2.75-.29a.6.6,0,0,0-.7.39c-1,2.65-1.52,5.34-.43,8.09a5.79,5.79,0,0,0,5.84,3.69,12,12,0,0,0,5.82-2,25.05,25.05,0,0,0,9.3-10.32,1.2,1.2,0,0,0,.08-.68,59.61,59.61,0,0,1-.34-9.54,165.47,165.47,0,0,1,3.41-26.52c.14-.72.22-1.45.36-2.17a.55.55,0,0,0-.5-.73,28.11,28.11,0,0,0-3.14-.41c-4.07-.16-8.15-.33-12.22-.37-5.93-.05-11.75.62-17.25,3.07a32.65,32.65,0,0,0-3,1.48c-1,.58-1.91,1.26-2.83,1.93-.63.46-.89.48-1.42,0-1.46-1.44-1.51-2.7-.17-4.27a11.47,11.47,0,0,1,4.66-3,42.19,42.19,0,0,1,8.56-2.26,83.15,83.15,0,0,1,11.35-1.05c2.25-.07,4.51.12,6.77.19,2.84.09,5.67.26,8.51.27,1.68,0,2-.32,2.47-1.91.27-.83.48-1.68.78-2.49.66-1.76,1.56-3.41,3.42-4.08a10.59,10.59,0,0,1,9.26.61,2.88,2.88,0,0,1,1,4.4c-.57.83-1.07,1.69-1.59,2.55C306.79,345,306.82,345.06,306.85,345.13Zm-64,46.42a5.2,5.2,0,0,0,2.28-1,9.29,9.29,0,0,0,3.52-5.21,6.25,6.25,0,0,0,.12-3.24,2.06,2.06,0,0,0-3.21-1.3,5.15,5.15,0,0,0-1,.81,17,17,0,0,0-4.24,7.61,3.78,3.78,0,0,0-.1,1.06.79.79,0,0,0,.64.83C241.49,391.29,242.16,391.42,242.82,391.55Zm30-5a14.07,14.07,0,0,0,2-.85,9.14,9.14,0,0,0,4-5.37,5.47,5.47,0,0,0,.16-3.08,2,2,0,0,0-2.88-1.31,6.48,6.48,0,0,0-1.5,1.06,17.25,17.25,0,0,0-4.33,6.59,6.34,6.34,0,0,0-.33,1.28.83.83,0,0,0,.5,1C271.22,386.16,272,386.34,272.78,386.56Z" transform="translate(-104.09 -313.66)"/><path class="cls-2" d="M117.12,381.45c.12-1.09.18-2.18.36-3.25a25.63,25.63,0,0,1,6.32-12.69,42,42,0,0,1,13.89-10.19,56.08,56.08,0,0,1,10.95-4,46.57,46.57,0,0,1,17.39-.6,20.13,20.13,0,0,1,10.34,5.33,5.68,5.68,0,0,1,1.85,4.05,9,9,0,0,1-1.57,5.93,8.06,8.06,0,0,1-1.81,1.63,1.89,1.89,0,0,1-2.27-.05,4.69,4.69,0,0,1-.94-.79,21.11,21.11,0,0,0-12-6.67,28.84,28.84,0,0,0-25.79,7.12,17.18,17.18,0,0,0-5.81,10.58,14,14,0,0,0,1.71,8.46,17,17,0,0,0,9.53,8.28,61,61,0,0,0,11,2.93A87.77,87.77,0,0,1,165,401.27a26.43,26.43,0,0,1,9.51,5.65,20.42,20.42,0,0,1,6.08,11.5,26.7,26.7,0,0,1-1.84,14.48,33.9,33.9,0,0,1-10.15,14.15,32.49,32.49,0,0,1-11.85,5.78,31.74,31.74,0,0,1-9.55,1.15,20.64,20.64,0,0,1-10.54-2.77,14.56,14.56,0,0,1-5-5.71,3.56,3.56,0,0,1-.36-1.16,1.39,1.39,0,0,1,1.24-1.69,7.28,7.28,0,0,1,2.33.07,55.38,55.38,0,0,0,10.72,1.36,27.65,27.65,0,0,0,9.32-1.53,27.93,27.93,0,0,0,10.83-6.17A20.51,20.51,0,0,0,172.23,425c1.06-6-.92-10.89-5.47-14.78a21.32,21.32,0,0,0-10.13-4.57c-3.15-.6-6.34-1-9.52-1.44a72.74,72.74,0,0,1-16.59-3.8A19.94,19.94,0,0,1,120,391.23a21,21,0,0,1-2.58-7.19.92.92,0,0,0-.09-.23Z" transform="translate(-104.09 -313.66)"/><path class="cls-2" d="M419.9,408.3c-1.51.83-3,1.77-4.51,2.43a9,9,0,0,1-9.15-1,8.24,8.24,0,0,1-3.27-5.3c-.34-1.71-.45-3.46-.67-5.19,0-.18,0-.36,0-.66-.55.48-1,.9-1.49,1.29-2.37,1.95-4.72,3.91-7.12,5.83a7.47,7.47,0,0,1-3.23,1.7,11.77,11.77,0,0,1-2.06.05l.18.1a365.49,365.49,0,0,0,36,18.61,103.45,103.45,0,0,0,17.26,6,43.32,43.32,0,0,0,13.84,1.26A17.9,17.9,0,0,0,468.27,427c.33-.4.69-.77,1.05-1.13a4.13,4.13,0,0,1,.77-.61c.33-.2.77-.47,1.07-.14a1.19,1.19,0,0,1,.06,1,36.94,36.94,0,0,1-2.11,3.86,23.16,23.16,0,0,1-9.45,8.45,23.9,23.9,0,0,1-6.59,1.87,36.14,36.14,0,0,1-7.42.36,43,43,0,0,1-8.49-1.39,107.27,107.27,0,0,1-20.86-7.91,309.55,309.55,0,0,1-36.54-21c-2.85-1.92-5.49-4.14-8.24-6.22-1.63-1.24-3.26-2.5-4.93-3.7-1-.73-1.06-.69-1.87.25-.51.58-1,1.16-1.49,1.77a13.23,13.23,0,0,1-6.65,4.42,15.57,15.57,0,0,1-8.45.43,7.48,7.48,0,0,1-6.11-7.53,8.87,8.87,0,0,1,7-9.3,8.13,8.13,0,0,1,3.47.1c1.54.29,3.09.59,4.62.9a1.64,1.64,0,0,0,1.95-.91,32.36,32.36,0,0,0,2.73-6.52c1.92-6,3.3-12.12,4.74-18.24a173.65,173.65,0,0,1,4.68-17.36,52.2,52.2,0,0,1,5.53-11.76,21.14,21.14,0,0,1,12-9.05,21.8,21.8,0,0,1,16.34,1.18,16.15,16.15,0,0,1,5.06,4,10.57,10.57,0,0,1,2.07,10,22,22,0,0,1-7.74,11.76A29.4,29.4,0,0,1,392,360.57c-1.52.33-3.06.6-4.57,1a2.81,2.81,0,0,1-3.45-2.19,3.71,3.71,0,0,1,2.62-4.72l4.83-1c6.39-1.28,10.24-5.14,11.66-11.46a19,19,0,0,0,.52-6.11,6.79,6.79,0,0,0-2-4.48c-1.85-1.74-4.05-1.85-6.33-1.14a14.79,14.79,0,0,0-8,6.28,35,35,0,0,0-4.76,11.08c-1.53,6.14-2.89,12.33-4.33,18.5-1.27,5.45-2.47,10.93-3.87,16.35a43.56,43.56,0,0,1-2.31,5.91c-.73,1.71-1.6,3.37-2.33,5.08-.64,1.52-.81,1.7.78,2.89a61.28,61.28,0,0,0,5.4,3.55c3.13,1.89,6.31,3.71,9.48,5.56a.23.23,0,0,0,.25,0l-.47-.37a6.15,6.15,0,0,1-2.28-6.13,30.76,30.76,0,0,1,3.8-10.49,36.74,36.74,0,0,1,8.27-10.21,13.84,13.84,0,0,1,9.73-3.4,25.72,25.72,0,0,1,10.36,2.4,8.5,8.5,0,0,1,3.77,3.3c1.08,1.79.75,3.27-1.11,4.45a6.28,6.28,0,0,1-4.76.73c-1-.2-1.12-.64-.81-1.56a9,9,0,0,0,.46-2,1.37,1.37,0,0,0-1-1.43,4.16,4.16,0,0,0-2.72,0,13.8,13.8,0,0,0-4.09,2.19,37.3,37.3,0,0,0-12.85,16.39,13.08,13.08,0,0,0-.7,2.77,1.12,1.12,0,0,0,.36,1,1.21,1.21,0,0,0,1.07-.13,12.87,12.87,0,0,0,2.12-1.92c2.08-2.46,4.1-5,6.12-7.47,1.43-1.77,2.79-3.6,4.25-5.35a5.38,5.38,0,0,1,3.73-2.05,11.4,11.4,0,0,1,5.08.71,8.06,8.06,0,0,1,1.71.92,2.09,2.09,0,0,1,.86,2.35,6.63,6.63,0,0,1-.56,1.48,50.49,50.49,0,0,0-4.39,11.84,4.83,4.83,0,0,0,0,2.64c.26.8.6,1,1.38.7a7.92,7.92,0,0,0,1.23-.63,20.39,20.39,0,0,0,6.3-6.24,2.67,2.67,0,0,0,.22-.41c1.19-3.12,2.33-6.27,3.6-9.37A126.58,126.58,0,0,1,442.56,359c1.56-1.95,3.3-3.76,4.89-5.68a2.84,2.84,0,0,1,3.17-1,9.49,9.49,0,0,1,4.93,2.78c1.47,1.65,1.53,3,.19,4.74-1.85,2.4-3.75,4.77-5.63,7.14a142.14,142.14,0,0,0-12.65,18.52c-.06.1-.11.21-.22.42l2.29-.76a13.78,13.78,0,0,1,5.13-.83,8.69,8.69,0,0,1,8,7A14.21,14.21,0,0,1,451.6,399,22.11,22.11,0,0,1,448,405c-.62.78-1.2,1.58-1.84,2.42a3.61,3.61,0,0,0,2.85.35,8.9,8.9,0,0,0,3.33-2.25c.42-.4.82-.82,1.22-1.25a1.79,1.79,0,0,1,1.85-.58,3.56,3.56,0,0,1,2.37,1.66,1.82,1.82,0,0,1-.15,2.29,11.94,11.94,0,0,1-7.43,4.48,7,7,0,0,1-3.17-.4c-1.12-.33-2.22-.71-3.31-1.09a1.24,1.24,0,0,0-1.37.27c-.48.43-1,.84-1.47,1.28a15.44,15.44,0,0,1-7.32,3.84A12.75,12.75,0,0,1,422,412.77a7.14,7.14,0,0,1-2-4.34C419.91,408.35,419.9,408.27,419.9,408.3Zm7.8,1.06c.1,1.73.92,2.36,2.36,1.92a6.75,6.75,0,0,0,2.13-1.06,22.13,22.13,0,0,0,2.72-2.49,36.36,36.36,0,0,0,7.54-13.58,9.68,9.68,0,0,0,.54-3.69,2,2,0,0,0-2.57-1.95,6,6,0,0,0-.69.2,12.88,12.88,0,0,0-6.93,6,52.62,52.62,0,0,0-4.23,10.1A17.22,17.22,0,0,0,427.7,409.36Zm-71.81-13.14a2.45,2.45,0,0,0-.25-.12,3.92,3.92,0,0,0-.49-.13,10.34,10.34,0,0,0-5.12.26,11.2,11.2,0,0,0-3.46,1.49,2.35,2.35,0,0,0,1.11,4.3,4.94,4.94,0,0,0,3.77-1,21.26,21.26,0,0,0,4.15-4.32A3.37,3.37,0,0,0,355.89,396.22Z" transform="translate(-104.09 -313.66)"/><path class="cls-2" d="M306.85,345.13a17.14,17.14,0,0,0,2,.27c3.06.06,6.12.09,9.19.12,2.77,0,5.55,0,8.32,0,4.15,0,8.29-.08,12.43-.21,2.46-.07,4.93-.25,7.38-.5a33.65,33.65,0,0,0,8.66-1.81,5.5,5.5,0,0,0,2.63-1.9,2.65,2.65,0,0,0,.47-2.18c-.1-.51-.18-1-.23-1.53a4.91,4.91,0,0,0-.79-2.25c-.11-.16-.18-.35-.35-.67a6.15,6.15,0,0,1,1,.18,10.73,10.73,0,0,1,5.6,5.32c1.74,3.47-.07,6.4-2.13,8.06a15.54,15.54,0,0,1-5.67,2.66,57.16,57.16,0,0,1-14.43,1.84c-3,.09-5.92.09-8.89,0-3.19-.05-6.39-.19-9.59-.33s-6.29-.32-9.42-.53c-2-.14-3.92-.37-5.88-.56-.18,0-.37,0-.56,0-1.57-.06-1.58-.06-2.14,1.43a83.42,83.42,0,0,0-3.93,14.84A130.12,130.12,0,0,0,298.77,381a59.27,59.27,0,0,0,0,11.38,17,17,0,0,0,1.17,4.82,3.39,3.39,0,0,0,2.11,2.1,2.81,2.81,0,0,0,2.38-.5,11.54,11.54,0,0,0,3.22-3.49,24.63,24.63,0,0,0,3.75-11.12c.08-.8.2-1,1-1.05a6.61,6.61,0,0,1,3.51.53c.58.26.78.58.66,1.12a46.39,46.39,0,0,1-3.18,9.89,20.07,20.07,0,0,1-4.58,6.38,12.1,12.1,0,0,1-8.6,2.87,11.26,11.26,0,0,1-3.82-.59,7.68,7.68,0,0,1-3.81-2.93c-.82-1.21-1.5-2.52-2.25-3.79-.23.28-.53.65-.84,1A24.79,24.79,0,0,1,277,406.05a21.79,21.79,0,0,1-9.4.61,11.32,11.32,0,0,1-6.93-4l-.47-.57c-.85,1-1.63,1.95-2.52,2.84a23.32,23.32,0,0,1-13.92,6.94,15.73,15.73,0,0,1-6.41-.26,11.85,11.85,0,0,1-7.53-6.44c-.09-.19-.17-.37-.26-.55l-1.91.74a6.59,6.59,0,0,1-4.57-.1c-1.26-.42-2.49-.94-3.81-1.45-.08.31-.19.67-.27,1.05-.75,3.7-1.51,7.4-2.24,11.1a4.33,4.33,0,0,1-2.1,3.08,12.48,12.48,0,0,1-10.31,1.3,2.51,2.51,0,0,1-2-3c.12-2,.27-4.07.34-6.1a30,30,0,0,0-.68-7.19c-.35-1.66-.74-3.31-1.11-5a.41.41,0,0,0-.19-.26c-.1,1.18-.2,2.36-.31,3.53-.62,6.33-1,12.68-2,19-.13.81-.35,1.6-.51,2.4a2.36,2.36,0,0,1-2.05,1.89,14.29,14.29,0,0,1-4.75.12,17.45,17.45,0,0,1-6.2-1.85,5.46,5.46,0,0,1-2.46-2.52,58.69,58.69,0,0,1-2.89-7.89c-1.51-4.78-2.78-9.62-3.86-14.51-.11-.48-.2-1-.29-1.46a1.75,1.75,0,0,1,.51-1.55,7.21,7.21,0,0,1,3-1.77,10.77,10.77,0,0,1,7.23-.45,2.44,2.44,0,0,1,1.88,2.07c0,.37,0,.75,0,1.13.15,2.11.23,4.24.49,6.34.29,2.31.7,4.6,1.15,6.89a57.47,57.47,0,0,0,2.58,9.16,4.89,4.89,0,0,0,.66,1.21c.6.83,1.35.78,1.78-.14a7.45,7.45,0,0,0,.56-2A142.31,142.31,0,0,0,196.57,404a43.32,43.32,0,0,0-.2-7.89,9.52,9.52,0,0,1-.06-1.85,2.47,2.47,0,0,1,1.41-2.17,9.17,9.17,0,0,1,6.59-.59c.2.05.4.12.59.18a3.27,3.27,0,0,1,2.56,3q.48,4.54,1.14,9.07c.45,3,1,6,1.53,8.95a3.59,3.59,0,0,0,.28.75l.15,0a3.83,3.83,0,0,0,.37-.83c.45-2,1-4.06,1.27-6.11a67.35,67.35,0,0,0,.63-13.31,31.11,31.11,0,0,0-1.25-7,1.82,1.82,0,0,1,.94-2.38,9.63,9.63,0,0,1,3.39-1.13,13.17,13.17,0,0,1,4.34,0,5.91,5.91,0,0,1,.69.19.9.9,0,0,1,.73,1,67.23,67.23,0,0,0,.4,9.08,35.5,35.5,0,0,0,1.27,6.54,6.7,6.7,0,0,0,.43,1,1.87,1.87,0,0,0,2.81.8,3.08,3.08,0,0,0,1.68-2.83,23,23,0,0,1,1-7.45,25.62,25.62,0,0,1,5.35-9.35,19,19,0,0,1,10.81-6,10.1,10.1,0,0,1,3.87-.21,5.85,5.85,0,0,1,4.7,4.49,11.05,11.05,0,0,1-.44,7,13.57,13.57,0,0,1-5.32,6.92,8.92,8.92,0,0,1-6,1.47c-.9-.09-1.81-.08-2.72-.11a.67.67,0,0,0-.76.53,11.22,11.22,0,0,0-.09,7.35,6,6,0,0,0,7,3.84,14.37,14.37,0,0,0,6.47-3.38,24,24,0,0,0,5.46-6.49,1.54,1.54,0,0,0,.19-.91c-1-7.64,1.55-14.06,6.75-19.56A18.86,18.86,0,0,1,275.9,371a12.28,12.28,0,0,1,3.63-.08,6,6,0,0,1,4.82,4.61,11.43,11.43,0,0,1-1,7.54,13,13,0,0,1-7.88,7.18,9,9,0,0,1-3.87.08l-2.75-.29a.6.6,0,0,0-.7.39c-1,2.65-1.52,5.34-.43,8.09a5.79,5.79,0,0,0,5.84,3.69,12,12,0,0,0,5.82-2,25.05,25.05,0,0,0,9.3-10.32,1.2,1.2,0,0,0,.08-.68,59.61,59.61,0,0,1-.34-9.54,165.47,165.47,0,0,1,3.41-26.52c.14-.72.22-1.45.36-2.17a.55.55,0,0,0-.5-.73,28.11,28.11,0,0,0-3.14-.41c-4.07-.16-8.15-.33-12.22-.37-5.93-.05-11.75.62-17.25,3.07a32.65,32.65,0,0,0-3,1.48c-1,.58-1.91,1.26-2.83,1.93-.63.46-.89.48-1.42,0-1.46-1.44-1.51-2.7-.17-4.27a11.47,11.47,0,0,1,4.66-3,42.19,42.19,0,0,1,8.56-2.26,83.15,83.15,0,0,1,11.35-1.05c2.25-.07,4.51.12,6.77.19,2.84.09,5.67.26,8.51.27,1.68,0,2-.32,2.47-1.91.27-.83.48-1.68.78-2.49.66-1.76,1.56-3.41,3.42-4.08a10.59,10.59,0,0,1,9.26.61,2.88,2.88,0,0,1,1,4.4c-.57.83-1.07,1.69-1.59,2.55C306.79,345,306.82,345.06,306.85,345.13Zm-64,46.42a5.2,5.2,0,0,0,2.28-1,9.29,9.29,0,0,0,3.52-5.21,6.25,6.25,0,0,0,.12-3.24,2.06,2.06,0,0,0-3.21-1.3,5.15,5.15,0,0,0-1,.81,17,17,0,0,0-4.24,7.61,3.78,3.78,0,0,0-.1,1.06.79.79,0,0,0,.64.83C241.49,391.29,242.16,391.42,242.82,391.55Zm30-5a14.07,14.07,0,0,0,2-.85,9.14,9.14,0,0,0,4-5.37,5.47,5.47,0,0,0,.16-3.08,2,2,0,0,0-2.88-1.31,6.48,6.48,0,0,0-1.5,1.06,17.25,17.25,0,0,0-4.33,6.59,6.34,6.34,0,0,0-.33,1.28.83.83,0,0,0,.5,1C271.22,386.16,272,386.34,272.78,386.56Z" transform="translate(-104.09 -313.66)"/><path class="cls-3" d="M117.12,381.45c.12-1.09.18-2.18.36-3.25a25.63,25.63,0,0,1,6.32-12.69,42,42,0,0,1,13.89-10.19,56.08,56.08,0,0,1,10.95-4,46.57,46.57,0,0,1,17.39-.6,20.13,20.13,0,0,1,10.34,5.33,5.68,5.68,0,0,1,1.85,4.05,9,9,0,0,1-1.57,5.93,8.06,8.06,0,0,1-1.81,1.63,1.89,1.89,0,0,1-2.27-.05,4.69,4.69,0,0,1-.94-.79,21.11,21.11,0,0,0-12-6.67,28.84,28.84,0,0,0-25.79,7.12,17.12,17.12,0,0,0-5.8,10.58,14,14,0,0,0,1.7,8.46,17,17,0,0,0,9.53,8.28,61,61,0,0,0,11,2.93A87.77,87.77,0,0,1,165,401.27a26.57,26.57,0,0,1,9.51,5.65,20.42,20.42,0,0,1,6.08,11.5,26.7,26.7,0,0,1-1.84,14.48,33.9,33.9,0,0,1-10.15,14.15,32.49,32.49,0,0,1-11.85,5.78,31.74,31.74,0,0,1-9.55,1.15,20.64,20.64,0,0,1-10.54-2.77,14.56,14.56,0,0,1-5-5.71,3.56,3.56,0,0,1-.36-1.16,1.38,1.38,0,0,1,1.24-1.69,7.28,7.28,0,0,1,2.33.07,55.28,55.28,0,0,0,10.72,1.36,27.65,27.65,0,0,0,9.32-1.53,27.93,27.93,0,0,0,10.83-6.17A20.51,20.51,0,0,0,172.23,425c1.06-6-.92-10.89-5.47-14.78a21.32,21.32,0,0,0-10.13-4.57c-3.15-.6-6.34-1-9.52-1.44a72.74,72.74,0,0,1-16.59-3.8A19.94,19.94,0,0,1,120,391.23a21,21,0,0,1-2.58-7.19.92.92,0,0,0-.09-.23Z" transform="translate(-104.09 -313.66)"/><path class="cls-3" d="M419.9,408.3c-1.51.83-3,1.77-4.51,2.43a9,9,0,0,1-9.15-1,8.24,8.24,0,0,1-3.27-5.3c-.34-1.71-.45-3.46-.67-5.19,0-.18,0-.36,0-.66-.55.48-1,.9-1.49,1.29-2.37,1.95-4.72,3.91-7.12,5.83a7.47,7.47,0,0,1-3.23,1.7,11.77,11.77,0,0,1-2.06.05l.18.1a365.49,365.49,0,0,0,36,18.61,103.45,103.45,0,0,0,17.26,6,43.32,43.32,0,0,0,13.84,1.26A17.9,17.9,0,0,0,468.27,427c.33-.4.69-.77,1.05-1.13a4.13,4.13,0,0,1,.77-.61c.33-.2.77-.47,1.07-.14a1.19,1.19,0,0,1,.06,1,36.94,36.94,0,0,1-2.11,3.86,23.16,23.16,0,0,1-9.45,8.45,23.9,23.9,0,0,1-6.59,1.87,36.14,36.14,0,0,1-7.42.36,43,43,0,0,1-8.49-1.39,107.27,107.27,0,0,1-20.86-7.91,309.55,309.55,0,0,1-36.54-21c-2.85-1.92-5.49-4.14-8.24-6.22-1.63-1.24-3.26-2.5-4.93-3.7-1-.73-1.06-.69-1.87.25-.51.58-1,1.16-1.49,1.77a13.23,13.23,0,0,1-6.65,4.42,15.57,15.57,0,0,1-8.45.43,7.48,7.48,0,0,1-6.11-7.53,8.87,8.87,0,0,1,7-9.3,8.13,8.13,0,0,1,3.47.1c1.54.29,3.09.59,4.62.9a1.64,1.64,0,0,0,1.95-.91,32.36,32.36,0,0,0,2.73-6.52c1.92-6,3.3-12.12,4.74-18.24a173.65,173.65,0,0,1,4.68-17.36,52.2,52.2,0,0,1,5.53-11.76,21.14,21.14,0,0,1,12-9.05,21.8,21.8,0,0,1,16.34,1.18,16.15,16.15,0,0,1,5.06,4,10.57,10.57,0,0,1,2.07,10,22,22,0,0,1-7.74,11.76A29.4,29.4,0,0,1,392,360.57c-1.52.33-3.06.6-4.57,1a2.81,2.81,0,0,1-3.45-2.19,3.71,3.71,0,0,1,2.62-4.72l4.83-1c6.39-1.28,10.24-5.14,11.66-11.46a19,19,0,0,0,.52-6.11,6.79,6.79,0,0,0-2-4.48c-1.85-1.74-4.05-1.85-6.33-1.14a14.79,14.79,0,0,0-8,6.28,35,35,0,0,0-4.76,11.08c-1.53,6.14-2.89,12.33-4.33,18.5-1.27,5.45-2.47,10.93-3.87,16.35a43.56,43.56,0,0,1-2.31,5.91c-.73,1.71-1.6,3.37-2.33,5.08-.64,1.52-.81,1.7.78,2.89a61.28,61.28,0,0,0,5.4,3.55c3.13,1.89,6.31,3.71,9.48,5.56a.23.23,0,0,0,.25,0l-.47-.37a6.15,6.15,0,0,1-2.28-6.13,30.76,30.76,0,0,1,3.8-10.49,36.74,36.74,0,0,1,8.27-10.21,13.84,13.84,0,0,1,9.73-3.4,25.72,25.72,0,0,1,10.36,2.4,8.5,8.5,0,0,1,3.77,3.3c1.08,1.79.75,3.27-1.11,4.45a6.28,6.28,0,0,1-4.76.73c-1-.2-1.12-.64-.81-1.56a9,9,0,0,0,.46-2,1.37,1.37,0,0,0-1-1.43,4.16,4.16,0,0,0-2.72,0,13.8,13.8,0,0,0-4.09,2.19,37.3,37.3,0,0,0-12.85,16.39,13.08,13.08,0,0,0-.7,2.77,1.12,1.12,0,0,0,.36,1,1.21,1.21,0,0,0,1.07-.13,12.87,12.87,0,0,0,2.12-1.92c2.08-2.46,4.1-5,6.12-7.47,1.43-1.77,2.79-3.6,4.25-5.35a5.38,5.38,0,0,1,3.73-2.05,11.4,11.4,0,0,1,5.08.71,8.06,8.06,0,0,1,1.71.92,2.09,2.09,0,0,1,.86,2.35,6.63,6.63,0,0,1-.56,1.48,50.49,50.49,0,0,0-4.39,11.84,4.83,4.83,0,0,0,0,2.64c.26.8.6,1,1.38.7a7.92,7.92,0,0,0,1.23-.63,20.39,20.39,0,0,0,6.3-6.24,2.67,2.67,0,0,0,.22-.41c1.19-3.12,2.33-6.27,3.6-9.37A126.58,126.58,0,0,1,442.56,359c1.56-1.95,3.3-3.76,4.89-5.68a2.84,2.84,0,0,1,3.17-1,9.49,9.49,0,0,1,4.93,2.78c1.47,1.65,1.53,3,.19,4.74-1.85,2.4-3.75,4.77-5.63,7.14a142.14,142.14,0,0,0-12.65,18.52c-.06.1-.11.21-.22.42l2.29-.76a13.78,13.78,0,0,1,5.13-.83,8.69,8.69,0,0,1,8,7A14.21,14.21,0,0,1,451.6,399,22.11,22.11,0,0,1,448,405c-.62.78-1.2,1.58-1.84,2.42a3.61,3.61,0,0,0,2.85.35,8.9,8.9,0,0,0,3.33-2.25c.42-.4.82-.82,1.22-1.25a1.79,1.79,0,0,1,1.85-.58,3.56,3.56,0,0,1,2.37,1.66,1.82,1.82,0,0,1-.15,2.29,11.94,11.94,0,0,1-7.43,4.48,7,7,0,0,1-3.17-.4c-1.12-.33-2.22-.71-3.31-1.09a1.24,1.24,0,0,0-1.37.27c-.48.43-1,.84-1.47,1.28a15.44,15.44,0,0,1-7.32,3.84A12.75,12.75,0,0,1,422,412.77a7.14,7.14,0,0,1-2-4.34C419.91,408.35,419.9,408.27,419.9,408.3Zm7.8,1.06c.1,1.73.92,2.36,2.36,1.92a6.75,6.75,0,0,0,2.13-1.06,22.13,22.13,0,0,0,2.72-2.49,36.36,36.36,0,0,0,7.54-13.58,9.68,9.68,0,0,0,.54-3.69,2,2,0,0,0-2.57-1.95,6,6,0,0,0-.69.2,12.88,12.88,0,0,0-6.93,6,52.62,52.62,0,0,0-4.23,10.1A17.22,17.22,0,0,0,427.7,409.36Zm-71.81-13.14a2.45,2.45,0,0,0-.25-.12,3.92,3.92,0,0,0-.49-.13,10.34,10.34,0,0,0-5.12.26,11.2,11.2,0,0,0-3.46,1.49,2.35,2.35,0,0,0,1.11,4.3,4.94,4.94,0,0,0,3.77-1,21.26,21.26,0,0,0,4.15-4.32A3.37,3.37,0,0,0,355.89,396.22Z" transform="translate(-104.09 -313.66)"/><path class="cls-3" d="M306.85,345.13a17.14,17.14,0,0,0,2,.27c3.06.06,6.12.09,9.19.12,2.77,0,5.55,0,8.32,0,4.15,0,8.29-.08,12.43-.21,2.46-.07,4.93-.25,7.38-.5a33.65,33.65,0,0,0,8.66-1.81,5.5,5.5,0,0,0,2.63-1.9,2.65,2.65,0,0,0,.47-2.18c-.1-.51-.18-1-.23-1.53a4.91,4.91,0,0,0-.79-2.25c-.11-.16-.18-.35-.35-.67a6.15,6.15,0,0,1,1,.18,10.73,10.73,0,0,1,5.6,5.32c1.74,3.47-.07,6.4-2.13,8.06a15.54,15.54,0,0,1-5.67,2.66,57.16,57.16,0,0,1-14.43,1.84c-3,.09-5.92.09-8.89,0-3.19-.05-6.39-.19-9.59-.33s-6.29-.32-9.42-.53c-2-.14-3.92-.37-5.88-.56-.18,0-.37,0-.56,0-1.57-.06-1.58-.06-2.14,1.43a83.42,83.42,0,0,0-3.93,14.84A130.12,130.12,0,0,0,298.77,381a59.27,59.27,0,0,0,0,11.38,17,17,0,0,0,1.17,4.82,3.39,3.39,0,0,0,2.11,2.1,2.81,2.81,0,0,0,2.38-.5,11.54,11.54,0,0,0,3.22-3.49,24.63,24.63,0,0,0,3.75-11.12c.08-.8.2-1,1-1.05a6.61,6.61,0,0,1,3.51.53c.58.26.78.58.66,1.12a46.39,46.39,0,0,1-3.18,9.89,20.07,20.07,0,0,1-4.58,6.38,12.1,12.1,0,0,1-8.6,2.87,11.26,11.26,0,0,1-3.82-.59,7.68,7.68,0,0,1-3.81-2.93c-.82-1.21-1.5-2.52-2.25-3.79-.23.28-.53.65-.84,1A24.79,24.79,0,0,1,277,406.05a21.79,21.79,0,0,1-9.4.61,11.32,11.32,0,0,1-6.93-4l-.47-.57c-.85,1-1.63,1.95-2.52,2.84a23.32,23.32,0,0,1-13.92,6.94,15.73,15.73,0,0,1-6.41-.26,11.82,11.82,0,0,1-7.53-6.44c-.09-.19-.17-.37-.26-.55l-1.91.74a6.59,6.59,0,0,1-4.57-.1c-1.26-.42-2.49-.94-3.81-1.45-.08.31-.19.67-.27,1.05-.75,3.7-1.51,7.4-2.24,11.1a4.33,4.33,0,0,1-2.1,3.08,12.48,12.48,0,0,1-10.31,1.3,2.51,2.51,0,0,1-2-3c.12-2,.27-4.07.34-6.1a30,30,0,0,0-.68-7.19c-.35-1.66-.74-3.31-1.11-5a.41.41,0,0,0-.19-.26c-.1,1.18-.2,2.36-.31,3.53-.62,6.33-1,12.68-2,19-.13.81-.35,1.6-.51,2.4a2.36,2.36,0,0,1-2.05,1.89,14.29,14.29,0,0,1-4.75.12,17.45,17.45,0,0,1-6.2-1.85,5.44,5.44,0,0,1-2.46-2.53,59.44,59.44,0,0,1-2.89-7.88c-1.51-4.78-2.78-9.62-3.86-14.51-.11-.48-.2-1-.29-1.46a1.75,1.75,0,0,1,.51-1.55,7.21,7.21,0,0,1,3-1.77,10.77,10.77,0,0,1,7.23-.45,2.43,2.43,0,0,1,1.88,2.07c0,.37,0,.75,0,1.13.15,2.11.23,4.24.49,6.34.29,2.31.7,4.6,1.15,6.89a57.47,57.47,0,0,0,2.58,9.16,4.89,4.89,0,0,0,.66,1.21c.6.83,1.35.78,1.78-.14a7.45,7.45,0,0,0,.56-2A142.31,142.31,0,0,0,196.57,404a43.32,43.32,0,0,0-.2-7.89,9.52,9.52,0,0,1-.06-1.85,2.47,2.47,0,0,1,1.41-2.17,9.17,9.17,0,0,1,6.59-.59c.2.05.39.12.59.18a3.27,3.27,0,0,1,2.56,3c.33,3,.7,6.05,1.14,9.07s1,6,1.52,8.95a4.3,4.3,0,0,0,.29.75l.15,0a4.38,4.38,0,0,0,.37-.83c.45-2,1-4.06,1.27-6.11a67.35,67.35,0,0,0,.63-13.31,31.11,31.11,0,0,0-1.25-7,1.82,1.82,0,0,1,.94-2.38,9.65,9.65,0,0,1,3.38-1.13,13.23,13.23,0,0,1,4.35,0,5.41,5.41,0,0,1,.69.19.9.9,0,0,1,.73,1,65.63,65.63,0,0,0,.4,9.08,35.5,35.5,0,0,0,1.27,6.54,6.7,6.7,0,0,0,.43,1,1.87,1.87,0,0,0,2.81.8,3.08,3.08,0,0,0,1.68-2.83,23,23,0,0,1,1-7.45,25.62,25.62,0,0,1,5.35-9.35,19,19,0,0,1,10.81-6,10.1,10.1,0,0,1,3.87-.21,5.83,5.83,0,0,1,4.7,4.49,11.05,11.05,0,0,1-.44,7,13.63,13.63,0,0,1-5.32,6.92,8.92,8.92,0,0,1-6,1.47c-.9-.09-1.81-.08-2.72-.11a.67.67,0,0,0-.76.53,11.29,11.29,0,0,0-.1,7.35,6,6,0,0,0,7,3.84,14.31,14.31,0,0,0,6.47-3.38,23.81,23.81,0,0,0,5.46-6.49,1.54,1.54,0,0,0,.19-.91c-1-7.64,1.55-14.06,6.75-19.56A18.86,18.86,0,0,1,275.9,371a12.28,12.28,0,0,1,3.63-.08,6,6,0,0,1,4.82,4.61,11.43,11.43,0,0,1-1,7.54,13,13,0,0,1-7.88,7.18,9,9,0,0,1-3.87.08l-2.75-.29a.6.6,0,0,0-.7.39c-1,2.65-1.52,5.34-.43,8.09a5.79,5.79,0,0,0,5.84,3.69,12,12,0,0,0,5.82-2,25.05,25.05,0,0,0,9.3-10.32,1.2,1.2,0,0,0,.08-.68,59.61,59.61,0,0,1-.34-9.54,165.47,165.47,0,0,1,3.41-26.52c.14-.72.22-1.45.36-2.17a.55.55,0,0,0-.5-.73,28.11,28.11,0,0,0-3.14-.41c-4.07-.16-8.15-.33-12.22-.37-5.93-.05-11.75.62-17.25,3.07a32.65,32.65,0,0,0-3,1.48c-1,.58-1.91,1.26-2.83,1.93-.63.46-.89.48-1.42,0-1.46-1.44-1.51-2.7-.17-4.27a11.47,11.47,0,0,1,4.66-3,42.19,42.19,0,0,1,8.56-2.26,83.15,83.15,0,0,1,11.35-1.05c2.25-.07,4.51.12,6.77.19,2.84.09,5.67.26,8.51.27,1.68,0,2-.32,2.47-1.91.27-.83.48-1.68.78-2.49.66-1.76,1.56-3.41,3.42-4.08a10.59,10.59,0,0,1,9.26.61,2.88,2.88,0,0,1,1,4.4c-.57.83-1.07,1.69-1.59,2.55C306.79,345,306.82,345.06,306.85,345.13Zm-64,46.42a5.2,5.2,0,0,0,2.28-1,9.29,9.29,0,0,0,3.52-5.21,6.25,6.25,0,0,0,.12-3.24,2.06,2.06,0,0,0-3.21-1.3,5.15,5.15,0,0,0-1,.81,17,17,0,0,0-4.24,7.61,3.78,3.78,0,0,0-.1,1.06.79.79,0,0,0,.64.83C241.49,391.29,242.16,391.42,242.82,391.55Zm30-5a14.07,14.07,0,0,0,2-.85,9.14,9.14,0,0,0,4-5.37,5.47,5.47,0,0,0,.16-3.08,2,2,0,0,0-2.88-1.31,6.48,6.48,0,0,0-1.5,1.06,17.25,17.25,0,0,0-4.33,6.59,6.34,6.34,0,0,0-.33,1.28.83.83,0,0,0,.5,1C271.22,386.16,272,386.34,272.78,386.56Z" transform="translate(-104.09 -313.66)"/></svg>